<svg width="72" height="72" viewBox="0 0 72 72" fill="none" xmlns="http://www.w3.org/2000/svg">
<g clip-path="url(#clip0_29222_271)">
<path d="M61.3598 5.89223V2.16567C61.3598 0.975841 60.3919 0.00791916 59.2021 0.00791916H53.2989C52.5509 0.00791916 51.8901 0.385638 51.4953 0.959951C41.9044 -1.61855 31.7099 1.07583 24.6702 8.11537C14.1053 18.6803 13.8546 35.6829 23.9308 46.5507L21.8294 48.5967L20.5679 47.3351C19.4993 46.2665 17.7598 46.2665 16.6912 47.3351C13.0862 50.9401 4.42725 59.599 1.212 62.8143C-0.383816 64.4101 -0.383816 67.0066 1.212 68.6024L3.46368 70.8541C4.99214 72.3824 7.47881 72.3824 9.0074 70.8541C9.33998 70.5215 23.1817 56.6798 24.6086 55.2529C25.6772 54.184 25.6771 52.4449 24.6086 51.3763L23.3205 50.0881L25.4212 48.0429C30.0486 52.3345 36.0172 54.9244 42.344 55.3621C42.3687 55.3638 42.3933 55.3648 42.4178 55.3648C42.9669 55.3648 43.4299 54.9393 43.4685 54.3833C43.5086 53.8025 43.0704 53.2989 42.4895 53.2587C29.3321 52.3483 18.6714 41.4642 18.6714 27.7189C18.6714 10.7576 34.8008 -1.45782 51.1107 3.04036V5.75119C36.2673 1.13475 21.2432 12.3073 21.2432 27.7482C21.2432 40.4072 31.5167 50.7786 44.2738 50.7786C55.1254 50.7786 60.8534 43.6108 61.0732 43.5008C61.0732 43.5008 61.0766 43.4972 61.0762 43.4975C61.0842 43.4889 61.0922 43.4802 61.1 43.4712C65.1013 39.1911 67.3041 33.609 67.3041 27.7482C67.3041 22.0156 65.1965 16.5494 61.3601 12.3078V8.63597C66.7392 13.4498 69.8759 20.2813 69.8759 27.7185C69.8759 40.8027 60.1145 51.6727 47.2169 53.1514C46.6385 53.2178 46.2234 53.7403 46.2895 54.319C46.3558 54.8975 46.8778 55.3128 47.4571 55.2464C61.4106 53.6467 71.9843 41.8877 71.9845 27.7188C71.9842 19.0642 68.0572 11.1408 61.3598 5.89223ZM7.51621 69.3628C6.81014 70.0689 5.66109 70.0689 4.95487 69.3628L2.70318 67.1111C1.92946 66.3374 1.92946 65.0786 2.70318 64.3049L10.8258 56.1823L15.7612 61.1177L7.51621 69.3628ZM17.2522 59.6269L12.3169 54.6915L13.8096 53.1988L18.745 58.1341L17.2522 59.6269ZM23.1176 53.7616L20.2362 56.643L15.3008 51.7076L18.1825 48.826C18.4269 48.5815 18.8326 48.5816 19.077 48.826L23.1179 52.8669C23.3621 53.1117 23.3621 53.517 23.1176 53.7616ZM34.8292 46.4136C32.5469 45.254 30.5039 43.6887 28.7971 41.8122V26.1813C28.7971 26.137 28.8331 26.101 28.8773 26.101H34.8294V46.4136H34.8292ZM42.9699 48.6268C40.9034 48.5002 38.8854 48.072 36.9379 47.3413C36.9379 47.1059 36.9379 18.5672 36.9379 18.1862C36.9379 18.1421 36.9738 18.1061 37.0176 18.1061H42.9699V48.6268ZM42.9699 10.1914V15.9975H37.0176C35.8109 15.9975 34.8294 16.9794 34.8294 18.1862V23.9924H28.8773C27.6703 23.9924 26.6886 24.9742 26.6886 26.1812V39.0713C17.735 25.215 27.7409 6.82626 44.2736 6.82626C46.6197 6.82626 48.9159 7.21214 51.1107 7.97151V8.00259H45.1587C43.9516 8.00259 42.9699 8.98458 42.9699 10.1914ZM51.1107 47.5248C49.1229 48.2128 47.0767 48.5818 45.0786 48.6543V10.1916C45.0786 10.1474 45.1146 10.1114 45.1587 10.1114H51.1108V47.5248H51.1107ZM65.1952 27.7482C65.1952 32.1143 63.8488 36.3098 61.3598 39.8227V30.1157C61.3598 29.5334 60.8879 29.0615 60.3056 29.0615C59.7232 29.0615 59.2513 29.5336 59.2513 30.1157V42.3525C57.506 44.1439 55.4408 45.6081 53.2193 46.6628C53.2193 44.2626 53.2193 4.20656 53.2193 2.24962V2.19661C53.2193 2.15245 53.2552 2.11645 53.2991 2.11645H59.2022C59.2292 2.11645 59.2514 2.13853 59.2514 2.16567C59.2514 3.78469 59.2514 24.3005 59.2514 25.1958C59.2514 25.778 59.7234 26.2501 60.3057 26.2501C60.888 26.2501 61.36 25.778 61.36 25.1958V15.6737C63.8486 19.1865 65.1952 23.3821 65.1952 27.7482Z" fill="#40D153"/>
</g>
<defs>
<clipPath id="clip0_29222_271">
<rect width="72" height="72" fill="white"/>
</clipPath>
</defs>
</svg>
