<svg width="72" height="72" viewBox="0 0 72 72" fill="none" xmlns="http://www.w3.org/2000/svg">
<g clip-path="url(#clip0_29222_1918)">
<path d="M65.2981 33.5828H63.6V15.3281C63.6 14.735 63.1103 14.2561 62.5129 14.2739C61.9357 14.2912 61.4906 14.7947 61.4906 15.3723V33.5827H54.4216C53.839 33.5827 53.367 34.0549 53.367 34.6373C53.367 35.2198 53.839 35.692 54.4216 35.692H65.2981C66.6611 35.692 67.7701 36.801 67.7701 38.1639C67.7701 39.5269 66.6611 40.6358 65.2981 40.6358H43.7506V35.692H49.4998C50.0824 35.692 50.5545 35.2198 50.5545 34.6373C50.5545 34.0549 50.0824 33.5827 49.4998 33.5827H43.4973C42.7346 33.5827 42.0783 34.0455 41.7932 34.7047H34.3324C34.0769 34.0491 33.4403 33.5827 32.6954 33.5827H29.6133C28.8684 33.5827 28.2318 34.0493 27.9763 34.7047H23.4555V33.7994C23.4555 32.9068 22.9762 32.1261 22.2631 31.6946V29.0091C24.1157 28.4515 25.4692 26.7306 25.4692 24.6987C25.4692 22.2168 23.4501 20.1975 20.9681 20.1975H17.4111V2.10938H61.4904V10.4062C61.4904 10.9994 61.9801 11.4782 62.5775 11.4605C63.1547 11.4432 63.5998 10.9396 63.5998 10.3621V1.75781C63.5998 0.786938 62.8129 0 61.842 0H17.0596C16.0887 0 15.3017 0.786938 15.3017 1.75781V20.1977H12.1516C9.66971 20.1977 7.65048 22.2169 7.65048 24.6988C7.65048 26.7306 9.00399 28.4514 10.8564 29.0091V31.6946C10.1433 32.1261 9.66409 32.9068 9.66409 33.7994V42.5284C9.66409 43.4209 10.1433 44.2017 10.8564 44.6331V47.3186C9.00399 47.8763 7.65048 49.5972 7.65048 51.6291C7.65048 54.111 9.66957 56.1302 12.1516 56.1302H15.3017V59.7916H7.05845C5.70155 59.7916 4.59751 60.8957 4.59751 62.2526V63.9996H4.58105C3.22416 63.9996 2.12012 65.1036 2.12012 66.4605V70.2422C2.12012 71.2115 2.9086 72 3.87793 72H61.842C62.8129 72 63.5998 71.2131 63.5998 70.2422V42.7454H65.298C67.8242 42.7454 69.8793 40.6903 69.8793 38.1641C69.8793 35.6379 67.8243 33.5828 65.2981 33.5828V33.5828ZM34.4532 36.8142H41.6412V39.5138H34.4532V36.8142ZM29.9649 35.6922H32.3438V40.636H29.9649V35.6922ZM23.4555 36.8142H27.8555V39.5138H23.4555V36.8142ZM9.75985 24.6988C9.75985 23.38 10.8328 22.3071 12.1516 22.3071H20.9681C22.2869 22.3071 23.3598 23.38 23.3598 24.6988C23.3598 26.0176 22.2869 27.0906 20.9681 27.0906H12.1516C10.8328 27.0907 9.75985 26.0177 9.75985 24.6988ZM12.1252 42.8801C11.9312 42.8801 11.7736 42.7223 11.7736 42.5285V33.7995C11.7736 33.6057 11.9312 33.4479 12.1252 33.4479H20.9945C21.1884 33.4479 21.3461 33.6057 21.3461 33.7995V42.5285C21.3461 42.7223 21.1884 42.8801 20.9945 42.8801H12.1252ZM20.1537 44.9895V47.1281H12.9658V44.9895H20.1537ZM12.9658 31.3386V29.1999H20.1537V31.3386H12.9658ZM12.1516 54.021C10.8328 54.021 9.75985 52.948 9.75985 51.6292C9.75985 50.3104 10.8328 49.2375 12.1516 49.2375H20.9681C22.2869 49.2375 23.3598 50.3104 23.3598 51.6292C23.3598 52.948 22.2869 54.021 20.9681 54.021H12.1516ZM28.8902 69.8906H4.22949V66.4605C4.22949 66.2667 4.38713 66.1089 4.58105 66.1089H11.1091C11.6918 66.1089 12.1638 65.6367 12.1638 65.0543C12.1638 64.4718 11.6918 63.9996 11.1091 63.9996H6.70688V62.2526C6.70688 62.0588 6.86452 61.901 7.05845 61.901H26.0611C26.255 61.901 26.4127 62.0588 26.4127 62.2526V63.9996H16.031C15.4484 63.9996 14.9763 64.4718 14.9763 65.0543C14.9763 65.6367 15.4484 66.1089 16.031 66.1089H28.5386C28.7326 66.1089 28.8902 66.2667 28.8902 66.4605V69.8906ZM61.4906 69.8906H30.9996V66.4605C30.9996 65.1036 29.8955 63.9996 28.5386 63.9996H28.522V62.2526C28.522 60.8957 27.418 59.7916 26.0611 59.7916H17.4111V56.1302H20.9681C23.45 56.1302 25.4692 54.1111 25.4692 51.6291C25.4692 49.5972 24.1157 47.8763 22.2631 47.3186V44.6331C22.9762 44.2017 23.4555 43.4209 23.4555 42.5284V41.623H27.9763C28.2318 42.2786 28.8684 42.7451 29.6133 42.7451H32.6954C33.4403 42.7451 34.0769 42.2785 34.3324 41.623H41.7932C42.0783 42.2823 42.7346 42.7451 43.4973 42.7451H61.4904V69.8906H61.4906Z" fill="#40D153"/>
<path d="M28.5288 17.4764C28.5288 23.499 33.4285 28.3986 39.451 28.3986C45.4736 28.3986 50.3732 23.499 50.3732 17.4764C50.3732 11.4539 45.4736 6.5542 39.451 6.5542C33.4285 6.5542 28.5288 11.4539 28.5288 17.4764ZM48.2638 17.4764C48.2638 22.3358 44.3104 26.2892 39.451 26.2892C34.5916 26.2892 30.6382 22.3358 30.6382 17.4764C30.6382 12.617 34.5916 8.66357 39.451 8.66357C44.3104 8.66357 48.2638 12.617 48.2638 17.4764Z" fill="#40D153"/>
<path d="M36.4421 16.3189C36.0301 15.907 35.3624 15.907 34.9505 16.3189C34.5386 16.7308 34.5386 17.3986 34.9505 17.8104L38.1946 21.0544C38.4006 21.2603 38.6706 21.3634 38.9405 21.3634C39.2103 21.3634 39.4803 21.2605 39.6864 21.0544L44.7148 16.026C45.1267 15.6141 45.1267 14.9463 44.7148 14.5345C44.3028 14.1226 43.6351 14.1226 43.2232 14.5345L38.9406 18.8172L36.4421 16.3189Z" fill="#40D153"/>
<path d="M34.2676 47.0488C34.2676 47.6313 34.7397 48.1035 35.3223 48.1035H54.7187C55.3013 48.1035 55.7734 47.6313 55.7734 47.0488C55.7734 46.4664 55.3013 45.9941 54.7187 45.9941H35.3223C34.7397 45.9941 34.2676 46.4664 34.2676 47.0488V47.0488Z" fill="#40D153"/>
<path d="M54.7186 51.1235H44.7187C44.1361 51.1235 43.6641 51.5958 43.6641 52.1782C43.6641 52.7607 44.1361 53.2329 44.7187 53.2329H54.7186C55.3012 53.2329 55.7733 52.7607 55.7733 52.1782C55.7733 51.5958 55.3012 51.1235 54.7186 51.1235Z" fill="#40D153"/>
<path d="M35.3223 53.2329H41.0624C41.645 53.2329 42.1171 52.7607 42.1171 52.1782C42.1171 51.5958 41.645 51.1235 41.0624 51.1235H35.3223C34.7397 51.1235 34.2676 51.5958 34.2676 52.1782C34.2676 52.7607 34.7397 53.2329 35.3223 53.2329V53.2329Z" fill="#40D153"/>
<path d="M54.7182 56.2532H35.3218C34.7392 56.2532 34.2671 56.7254 34.2671 57.3079C34.2671 57.8903 34.7392 58.3625 35.3218 58.3625H54.7182C55.3008 58.3625 55.7729 57.8903 55.7729 57.3079C55.7729 56.7254 55.3008 56.2532 54.7182 56.2532Z" fill="#40D153"/>
<path d="M54.7186 61.3828H49.6406C49.058 61.3828 48.5859 61.855 48.5859 62.4375C48.5859 63.02 49.058 63.4922 49.6406 63.4922H54.7186C55.3012 63.4922 55.7733 63.02 55.7733 62.4375C55.7733 61.855 55.3012 61.3828 54.7186 61.3828Z" fill="#40D153"/>
<path d="M46.4062 61.3828H35.3223C34.7397 61.3828 34.2676 61.855 34.2676 62.4375C34.2676 63.02 34.7397 63.4922 35.3223 63.4922H46.4062C46.9888 63.4922 47.4609 63.02 47.4609 62.4375C47.4609 61.855 46.9888 61.3828 46.4062 61.3828Z" fill="#40D153"/>
</g>
<defs>
<clipPath id="clip0_29222_1918">
<rect width="72" height="72" fill="white"/>
</clipPath>
</defs>
</svg>
