<svg width="72" height="72" viewBox="0 0 72 72" fill="none" xmlns="http://www.w3.org/2000/svg">
<path d="M64.6125 41.8284C64.6125 41.2459 64.1404 40.7737 63.5578 40.7737H54.1069C53.5243 40.7737 53.0522 41.2459 53.0522 41.8284V47.8366C53.0522 48.419 53.5243 48.8913 54.1069 48.8913H63.5578C64.1404 48.8913 64.6125 48.419 64.6125 47.8366V41.8284ZM62.5031 46.7819H55.1616V42.8831H62.5031V46.7819Z" fill="#40D153"/>
<path d="M63.5578 53.4055H54.1069C53.5243 53.4055 53.0522 53.8777 53.0522 54.4602V60.4643C53.0522 61.0468 53.5243 61.519 54.1069 61.519H63.5578C64.1404 61.519 64.6125 61.0468 64.6125 60.4643V54.4602C64.6125 53.8777 64.1402 53.4055 63.5578 53.4055ZM62.5031 59.4096H55.1616V55.5149H62.5031V59.4096Z" fill="#40D153"/>
<path d="M72 20.598C72 18.577 70.3533 16.933 68.3291 16.933H50.3698V11.9367C52.3565 11.8934 53.9595 10.2675 53.9595 8.27386C53.9595 6.25293 52.3128 4.60889 50.2886 4.60889H21.3147C19.2905 4.60889 17.6438 6.25293 17.6438 8.27386C17.6438 10.2948 19.2905 11.9388 21.3147 11.9388H21.6302V16.933H3.67088C1.64672 16.933 0 18.577 0 20.598C0 22.2442 1.0928 23.6401 2.59214 24.1012V66.3367C2.59214 66.9191 3.06422 67.3914 3.64683 67.3914H68.3533C68.9359 67.3914 69.408 66.9191 69.408 66.3367V46.5452C69.408 45.9628 68.9359 45.4906 68.3533 45.4906C67.7707 45.4906 67.2986 45.9628 67.2986 46.5452V65.2818H50.3698V24.2629H67.2986V41.6604C67.2986 42.2428 67.7707 42.715 68.3533 42.715C68.9359 42.715 69.408 42.2428 69.408 41.6604V24.1012C70.9072 23.6401 72 22.2441 72 20.598ZM19.7533 8.27386C19.7533 7.41604 20.4538 6.71826 21.3148 6.71826H50.2888C51.1497 6.71826 51.8503 7.41604 51.8503 8.27386C51.8503 9.13167 51.1498 9.82945 50.2888 9.82945H21.3147C20.4538 9.82945 19.7533 9.13167 19.7533 8.27386ZM2.10938 20.598C2.10938 19.7401 2.80983 19.0424 3.67088 19.0424H21.6304V22.1537H3.67088C2.80983 22.1535 2.10938 21.4558 2.10938 20.598ZM4.70152 24.2629H21.6304V65.2818H4.70152V24.2629ZM23.7396 11.9388H48.2603V65.282H44.7888V50.2708C44.7888 49.6884 44.3167 49.2161 43.7341 49.2161H28.2658C27.6832 49.2161 27.2111 49.6884 27.2111 50.2708V65.2818H23.7396V11.9388ZM37.0526 51.3255H42.6795V65.2818H37.0526V51.3255ZM34.9432 65.282H29.3205V51.3256H34.9432V65.282ZM68.3291 22.1535H50.3698V19.0422H68.3293C69.1902 19.0422 69.8908 19.74 69.8908 20.5978C69.8906 21.4558 69.1902 22.1535 68.3291 22.1535Z" fill="#40D153"/>
<path d="M17.8893 28.1458H8.44238C7.85977 28.1458 7.3877 28.618 7.3877 29.2004V35.2086C7.3877 35.7911 7.85977 36.2633 8.44238 36.2633H17.8893C18.4719 36.2633 18.944 35.7911 18.944 35.2086V29.2004C18.944 28.618 18.4718 28.1458 17.8893 28.1458ZM16.8346 34.154H9.49707V30.2551H16.8346V34.154Z" fill="#40D153"/>
<path d="M17.8893 40.7737H8.44238C7.85977 40.7737 7.3877 41.2459 7.3877 41.8284V47.8366C7.3877 48.419 7.85977 48.8913 8.44238 48.8913H17.8893C18.4719 48.8913 18.944 48.419 18.944 47.8366V41.8284C18.944 41.2459 18.4718 40.7737 17.8893 40.7737ZM16.8346 46.7819H9.49707V42.8831H16.8346V46.7819Z" fill="#40D153"/>
<path d="M17.8893 53.4055H8.44238C7.85977 53.4055 7.3877 53.8777 7.3877 54.4602V60.4643C7.3877 61.0468 7.85977 61.519 8.44238 61.519H17.8893C18.4719 61.519 18.944 61.0468 18.944 60.4643V54.4602C18.944 53.8777 18.4718 53.4055 17.8893 53.4055ZM16.8346 59.4096H9.49707V55.5149H16.8346V59.4096Z" fill="#40D153"/>
<path d="M64.6125 29.2004C64.6125 28.618 64.1404 28.1458 63.5578 28.1458H54.1069C53.5243 28.1458 53.0522 28.618 53.0522 29.2004V35.2086C53.0522 35.7911 53.5243 36.2633 54.1069 36.2633H63.5578C64.1404 36.2633 64.6125 35.7911 64.6125 35.2086V29.2004ZM62.5031 34.154H55.1616V30.2551H62.5031V34.154Z" fill="#40D153"/>
<path d="M29.4114 28.7H32.3831V31.6667C32.3831 32.4555 33.0251 33.0972 33.8144 33.0972H38.1814C38.9728 33.0972 39.6166 32.4555 39.6166 31.6667V28.7H42.5883C43.3797 28.7 44.0236 28.0583 44.0236 27.2695V22.9124C44.0236 22.1214 43.3797 21.4779 42.5883 21.4779H39.6166V18.5152C39.6166 17.7242 38.9728 17.0808 38.1814 17.0808H33.8144C33.0252 17.0808 32.3831 17.7243 32.3831 18.5152V21.4779H29.4114C28.62 21.4779 27.9761 22.1214 27.9761 22.9124V27.2695C27.9761 28.0583 28.62 28.7 29.4114 28.7ZM30.0854 23.5872H33.4378C34.0204 23.5872 34.4925 23.115 34.4925 22.5326V19.19H37.5072V22.5326C37.5072 23.115 37.9793 23.5872 38.5619 23.5872H41.9143V26.5906H38.5619C37.9793 26.5906 37.5072 27.0628 37.5072 27.6453V30.9878H34.4925V27.6453C34.4925 27.0628 34.0204 26.5906 33.4378 26.5906H30.0854V23.5872Z" fill="#40D153"/>
<path d="M40.4571 36.4324H31.543C30.9604 36.4324 30.4883 36.9046 30.4883 37.4871C30.4883 38.0695 30.9604 38.5417 31.543 38.5417H40.4571C41.0397 38.5417 41.5117 38.0695 41.5117 37.4871C41.5117 36.9046 41.0397 36.4324 40.4571 36.4324Z" fill="#40D153"/>
<path d="M40.4571 41.4133H31.543C30.9604 41.4133 30.4883 41.8855 30.4883 42.468C30.4883 43.0505 30.9604 43.5227 31.543 43.5227H40.4571C41.0397 43.5227 41.5117 43.0505 41.5117 42.468C41.5117 41.8855 41.0397 41.4133 40.4571 41.4133Z" fill="#40D153"/>
</svg>
