<svg width="72" height="72" viewBox="0 0 72 72" fill="none" xmlns="http://www.w3.org/2000/svg">
<g clip-path="url(#clip0_29222_2337)">
<path d="M11.7017 13.8364C12.1566 14.2499 12.7634 14.1015 13.1931 13.7689C13.5856 13.3397 13.5561 12.6714 13.1257 12.2789C12.695 11.8849 12.0282 11.9158 11.6357 12.3451C11.2416 12.7755 11.2711 13.4424 11.7017 13.8364V13.8364Z" fill="#40D153"/>
<path d="M8.29086 18.6555C8.76573 18.9501 9.44939 18.7914 9.7443 18.3178C10.0524 17.8225 9.90048 17.1712 9.40676 16.8644C8.91135 16.5564 8.26005 16.7069 7.95333 17.202C7.64519 17.6973 7.79574 18.3472 8.29086 18.6555V18.6555Z" fill="#40D153"/>
<path d="M16.7795 10.1418C17.5847 10.1418 18.116 9.10892 17.6208 8.45044C17.2705 7.98613 16.6078 7.89327 16.1435 8.24361C15.6776 8.59536 15.5848 9.25665 15.9365 9.72237C16.1436 9.99688 16.4602 10.1418 16.7795 10.1418Z" fill="#40D153"/>
<path d="M5.82717 24.0217C6.3344 24.2154 6.99302 23.9326 7.19337 23.4196C7.40442 22.8765 7.13428 22.2645 6.59118 22.0534C6.04821 21.8424 5.43757 22.111 5.22652 22.6555C5.01378 23.1987 5.28393 23.8094 5.82717 24.0217Z" fill="#40D153"/>
<path d="M4.39754 29.7495C4.91968 29.8504 5.53201 29.4264 5.62867 28.9053C5.7356 28.3328 5.35853 27.7813 4.78588 27.6758C4.21182 27.5673 3.66182 27.9459 3.55475 28.5184C3.44782 29.0912 3.82489 29.6428 4.39754 29.7495V29.7495Z" fill="#40D153"/>
<path d="M5.81071 45.1577C5.26761 45.3688 4.99746 45.9794 5.20851 46.5224C5.37032 46.9417 5.7685 47.1979 6.19201 47.1979C6.86188 47.1979 7.42581 46.406 7.17691 45.7613C6.96572 45.2168 6.35522 44.9467 5.81071 45.1577Z" fill="#40D153"/>
<path d="M4.77457 41.5024C5.34863 41.3969 5.72726 40.8453 5.62032 40.2727C5.5148 39.7002 4.96325 39.3215 4.3906 39.4271C3.81795 39.534 3.43947 40.0841 3.54499 40.6568C3.64841 41.2321 4.21515 41.6117 4.77457 41.5024Z" fill="#40D153"/>
<path d="M4.04891 35.6437C5.4455 35.5952 5.44578 33.581 4.04891 33.5332C3.46627 33.5317 2.99366 34.0046 2.99366 34.5869C2.99211 35.1708 3.465 35.6422 4.04736 35.6437H4.04891Z" fill="#40D153"/>
<path d="M63.5565 50.8294C63.0654 50.517 62.4126 50.6634 62.1002 51.1544C61.7879 51.6469 61.9328 52.2984 62.4253 52.6121C62.9553 52.911 63.4407 52.8027 63.8817 52.287C64.194 51.7946 64.0489 51.1431 63.5565 50.8294Z" fill="#40D153"/>
<path d="M62.7911 17.1625C62.2931 17.4637 62.1341 18.1138 62.4364 18.6119C62.7247 19.088 63.4111 19.2551 63.8872 18.9664C64.3853 18.6639 64.5427 18.0153 64.2418 17.5172C63.9391 17.0191 63.2906 16.8601 62.7911 17.1625V17.1625Z" fill="#40D153"/>
<path d="M59.1243 12.5364C58.6895 12.9247 58.6529 13.5917 59.0412 14.0264C59.5264 14.4658 60.0231 14.4935 60.5313 14.1096C60.9646 13.7211 61.0028 13.0543 60.6143 12.6194C60.2261 12.1859 59.559 12.1481 59.1243 12.5364Z" fill="#40D153"/>
<path d="M66.0722 45.4897C65.5305 45.273 64.9171 45.5362 64.7004 46.0765C64.4418 46.723 65.0047 47.5243 65.6797 47.5243C66.0989 47.5243 66.4943 47.274 66.6605 46.8602C66.8756 46.3199 66.6125 45.705 66.0722 45.4897Z" fill="#40D153"/>
<path d="M67.9621 33.8863C67.3782 33.8807 66.9012 34.3478 66.8956 34.9317C66.8895 35.5613 67.4097 35.9119 67.9508 35.9968C68.529 35.9968 69.0004 35.5311 69.0061 34.9528C69.0117 34.3689 68.5446 33.8919 67.9621 33.8863Z" fill="#40D153"/>
<path d="M65.9189 24.4257C66.0427 24.4257 66.168 24.4047 66.2905 24.3583C66.8348 24.1528 67.1106 23.545 66.9067 22.9991C66.37 21.7079 64.484 22.4184 64.9313 23.742C65.0903 24.1654 65.4925 24.4257 65.9189 24.4257Z" fill="#40D153"/>
<path d="M66.4327 29.2431C66.5243 29.764 67.1315 30.1953 67.654 30.1C68.2281 30.0001 68.6123 29.4528 68.5109 28.8787C68.411 28.3047 67.8637 27.9204 67.2896 28.0219C66.7156 28.1218 66.3313 28.6691 66.4327 29.2431Z" fill="#40D153"/>
<path d="M60.1012 55.6173C59.6749 55.2191 59.0078 55.243 58.6097 55.6694C58.213 56.0956 58.2369 56.7639 58.6631 57.1608C59.1674 57.5545 59.6645 57.537 60.1547 57.1087C60.5515 56.681 60.529 56.014 60.1012 55.6173Z" fill="#40D153"/>
<path d="M67.5553 39.7744C66.9828 39.6619 66.4283 40.0349 66.3157 40.606C66.2001 41.2021 66.7529 41.8652 67.3527 41.8652C67.8465 41.8652 68.2882 41.5163 68.3868 41.014C68.4994 40.4415 68.1267 39.8871 67.5553 39.7744Z" fill="#40D153"/>
<path d="M38.5163 65.4086V65.4072C37.9353 65.4551 37.5019 65.9629 37.5483 66.5441C37.5898 67.0554 38.158 67.5635 38.6852 67.5121C39.2663 67.4657 39.6996 66.9563 39.6532 66.3753C39.6054 65.7942 39.096 65.3608 38.5163 65.4086Z" fill="#40D153"/>
<path d="M49.474 62.4246C48.9493 62.6792 48.7311 63.3096 48.9858 63.8344C49.2264 64.3287 49.9029 64.5665 50.3956 64.3228C50.9204 64.068 51.1385 63.4378 50.884 62.9128C50.6291 62.3894 49.9988 62.1698 49.474 62.4246V62.4246Z" fill="#40D153"/>
<path d="M44.1343 64.4266C43.5715 64.5801 43.2396 65.1596 43.3928 65.7224C43.5344 66.2418 44.1726 66.6045 44.6887 66.4641C46.0251 66.0498 45.4949 64.1076 44.1343 64.4266Z" fill="#40D153"/>
<path d="M56.1529 8.4687C56.1515 8.4687 56.1515 8.4687 56.1515 8.4687C55.6914 8.11287 55.0288 8.19856 54.6713 8.65879C54.3153 9.12014 54.4012 9.78298 54.8625 10.139C55.382 10.487 55.8754 10.4239 56.3428 9.94901C56.6988 9.48751 56.6131 8.82481 56.1529 8.4687V8.4687Z" fill="#40D153"/>
<path d="M54.3533 59.4699C53.8848 59.816 53.7864 60.4773 54.1325 60.9458C54.5943 61.4293 55.0862 61.5029 55.6084 61.1666C56.0769 60.8205 56.1754 60.1592 55.8293 59.6908C55.4833 59.2223 54.8218 59.1238 54.3533 59.4699V59.4699Z" fill="#40D153"/>
<path d="M32.808 65.3468V65.3454C32.2283 65.2863 31.7105 65.7084 31.6502 66.2881C31.5929 66.8494 32.1352 67.4516 32.7012 67.4516C33.2359 67.4516 33.6945 67.0464 33.7508 66.5035C33.8099 65.9238 33.3878 65.4059 32.808 65.3468Z" fill="#40D153"/>
<path d="M55.1886 34.8142C55.1886 33.5933 54.6562 32.4946 53.8114 31.7376C55.6194 30.1139 55.6218 27.1941 53.8114 25.5719C55.6192 23.9485 55.622 21.0292 53.8122 19.4068C56.3881 17.0975 55.0341 12.6564 51.5798 12.2186V4.23015C51.5798 1.89762 49.6822 0 47.3498 0H33.979C32.6147 0 32.6147 2.1105 33.979 2.1105H47.3498C48.5186 2.1105 49.4693 3.0615 49.4693 4.23015V4.78859H23.4144V4.23015C23.4144 3.06122 24.3654 2.1105 25.5341 2.1105H28.2124C29.5768 2.1105 29.5768 0 28.2124 0H25.5341C23.2015 0 21.3039 1.89762 21.3039 4.23015V19.6782C18.4311 17.8473 14.5487 20.0121 14.5487 23.4097V48.1545L12.5729 50.1394C10.4264 49.1368 7.77304 49.616 6.10448 51.2923C3.87663 53.5301 3.87663 57.1714 6.10448 59.4093L12.6359 65.9707C13.5985 66.9377 15.0941 65.4488 14.1317 64.4818L7.60026 57.9204C6.18974 56.5035 6.18974 54.198 7.60026 52.7812C8.98813 51.387 11.3339 51.3946 12.714 52.7812L23.6077 63.7247C25.018 65.1416 25.018 67.4471 23.6077 68.8639C21.995 70.4841 19.4876 70.1126 18.0806 68.4487C17.1179 67.4815 15.6224 68.9707 16.5848 69.9376C21.6136 75.2538 29.5885 69.326 25.8006 63.0844L27.7017 61.1745C33.4126 61.6103 38.9576 58.4576 41.5192 53.3309H47.3498C49.6822 53.3309 51.5798 51.4333 51.5798 49.1007V38.9263C53.6121 38.6687 55.1886 36.9279 55.1886 34.8142ZM53.0781 34.8281C53.0781 35.9423 52.1717 36.8487 51.0575 36.8487H49.2151C46.5319 36.7368 46.5322 32.905 49.2151 32.7934H51.0575C52.1716 32.7934 53.0781 33.7 53.0781 34.8281ZM53.0781 28.6623C53.0781 29.7765 52.1717 30.6829 51.0575 30.6829H49.2151C46.5319 30.5711 46.5322 26.7392 49.2151 26.6277H51.0575C52.1716 26.6277 53.0781 27.5341 53.0781 28.6623ZM53.0781 22.4966C53.0781 23.6108 52.1717 24.5172 51.0575 24.5172H49.2151C46.5319 24.4053 46.5322 20.5735 49.2151 20.4619H51.0575C52.1716 20.4619 53.0781 21.3683 53.0781 22.4966ZM53.0781 16.3166C53.0422 17.3967 52.1738 18.3514 51.0575 18.3514H49.2151C46.532 18.2397 46.5322 14.4077 49.2151 14.2961H51.0575C52.1716 14.296 53.0781 15.2025 53.0781 16.3166V16.3166ZM49.4693 6.8991V12.1855C45.5419 11.9929 43.5745 16.8052 46.4603 19.4065C44.635 20.9911 44.6357 23.9884 46.4603 25.5723C44.635 27.1568 44.6357 30.1542 46.4603 31.738C43.5734 34.3413 45.5442 39.1518 49.4693 38.9591V44.2455H29.46C28.7918 40.6459 26.7169 37.265 23.4144 35.5413V6.8991H49.4693ZM28.8107 59.1135L27.3328 59.0447C27.0372 59.0329 26.7458 59.1434 26.5359 59.3544L24.3855 61.5146L14.3066 51.3895L16.352 49.3347C16.5488 49.137 16.6594 48.8693 16.6594 48.5903V23.4097C16.6594 20.4374 21.242 20.4374 21.242 23.4097V36.1774C21.242 36.5981 21.4919 36.9787 21.8781 37.1459C24.3923 38.2338 26.2525 40.4866 27.116 43.4895C28.0899 46.8767 27.5704 50.6159 25.7603 53.2482C25.0094 54.34 26.6924 55.6173 27.4992 54.4441C27.7436 54.0887 27.9683 53.7168 28.1732 53.331H39.1085C36.9129 56.9197 33.0697 59.1054 28.8107 59.1135V59.1135ZM47.3498 51.2205H29.0544C29.5402 49.6846 29.7593 48.0242 29.6949 46.3562H49.4693V49.1009C49.4693 50.2695 48.5186 51.2205 47.3498 51.2205V51.2205Z" fill="#40D153"/>
<path d="M26.4297 14.8954C26.9297 15.3011 27.4271 15.2946 27.9218 14.8759L31.0106 11.7053C31.9627 10.7282 30.4508 9.25502 29.4989 10.2326L26.4101 13.4031C26.0035 13.8207 26.0124 14.4888 26.4297 14.8954V14.8954Z" fill="#40D153"/>
<path d="M26.4297 21.6801C26.9297 22.0858 27.4271 22.0793 27.9218 21.6606L37.6202 11.7053C38.5723 10.7282 37.0603 9.25502 36.1085 10.2326L26.4101 20.1879C26.0035 20.6053 26.0124 21.2734 26.4297 21.6801V21.6801Z" fill="#40D153"/>
</g>
<defs>
<clipPath id="clip0_29222_2337">
<rect width="72" height="72" fill="white"/>
</clipPath>
</defs>
</svg>
