<svg width="68" height="72" viewBox="0 0 68 72" fill="none" xmlns="http://www.w3.org/2000/svg">
<path d="M32.7734 52.3074C32.1908 52.3074 31.7188 52.7795 31.7188 53.3621C31.7188 53.9447 32.1908 54.4167 32.7734 54.4167H35.2264C35.809 54.4167 36.2811 53.9447 36.2811 53.3621C36.2811 52.7795 35.809 52.3074 35.2264 52.3074H32.7734Z" fill="#40D153"/>
<path d="M64.2341 14.9979H57.8621V7.52906C57.8621 6.06881 56.6741 4.88081 55.2139 4.88081H51.1815C50.5989 4.88081 50.1268 5.35289 50.1268 5.9355C50.1268 6.51811 50.5989 6.99019 51.1815 6.99019H55.2139C55.511 6.99019 55.7528 7.23192 55.7528 7.52906V41.6334C55.7528 41.9306 55.511 42.1723 55.2139 42.1723H12.7857C12.4885 42.1723 12.2468 41.9306 12.2468 41.6334V6.99019H46.9646C47.5472 6.99019 48.0192 6.51811 48.0192 5.9355C48.0192 5.35289 47.5472 4.88081 46.9646 4.88081H38.6247L37.2689 2.42817C36.4407 0.930375 34.8634 0 33.1521 0C28.2586 0 17.9064 0 13.0121 0C11.4269 0 10.1374 1.28953 10.1374 2.87466V5.9355V14.9979H3.76541C1.87569 14.9979 0.338379 16.5354 0.338379 18.425V56.3091C0.338379 58.1993 1.87583 59.7374 3.76541 59.7374H27.2629C27.848 62.3708 26.9854 64.6608 24.7402 66.4104H23.3085C21.8942 66.4104 20.6563 67.1993 20.2277 68.3736L19.6352 69.9968C19.4684 70.4538 19.5354 70.9647 19.8142 71.3634C20.093 71.7621 20.55 72 21.0365 72H46.9627C47.4493 72 47.9062 71.7621 48.185 71.3634C48.4639 70.9647 48.5308 70.4538 48.3641 69.9968L47.7716 68.3736C47.343 67.1993 46.1049 66.4104 44.6906 66.4104H43.2591C41.0137 64.6606 40.151 62.3707 40.7364 59.7374H46.3361C46.9187 59.7374 47.3908 59.2653 47.3908 58.6827C47.3908 58.1001 46.9187 57.628 46.3361 57.628H3.76541C3.0388 57.628 2.44775 57.0364 2.44775 56.3091V49.096H65.5517V56.3091C65.5517 57.0364 64.9606 57.628 64.234 57.628H50.5532C49.9706 57.628 49.4985 58.1001 49.4985 58.6827C49.4985 59.2653 49.9706 59.7374 50.5532 59.7374H64.2341C66.1239 59.7374 67.6612 58.1993 67.6612 56.3091V18.425C67.6612 16.5354 66.1237 14.9979 64.2341 14.9979ZM45.7902 69.0967L46.08 69.8906H21.9195L22.2094 69.0967C22.3115 68.817 22.7314 68.5197 23.3085 68.5197H44.6909C45.2682 68.5198 45.6882 68.817 45.7902 69.0967ZM27.7448 66.4104C29.276 64.5062 29.853 62.2228 29.4155 59.7375H38.584C38.1464 62.223 38.7231 64.5061 40.2548 66.4104H27.7448ZM12.7857 44.2817H55.2139C56.6741 44.2817 57.8621 43.0937 57.8621 41.6334V20.7809H61.8777V46.9866H6.12172V20.7809H10.1374V41.6334C10.1374 43.0935 11.3254 44.2817 12.7857 44.2817ZM35.4229 3.44869L36.2145 4.88081H32.6634C31.2576 2.35027 31.3193 2.4217 31.1127 2.10938H33.1521C34.096 2.10938 34.9662 2.62252 35.4229 3.44869ZM29.4617 3.44869L30.2532 4.88081H26.7023C25.2964 2.35027 25.3582 2.4217 25.1517 2.10938H27.191C28.1347 2.10938 29.0049 2.62252 29.4617 3.44869ZM21.2298 2.10938C22.1736 2.10938 23.0437 2.62252 23.5004 3.44855L24.292 4.88081H12.2468V2.87466C12.2468 2.45264 12.59 2.10938 13.0121 2.10938H21.2298ZM2.44775 18.425C2.44775 17.6984 3.0388 17.1073 3.76541 17.1073H10.1374V18.6715H5.06703C4.48442 18.6715 4.01235 19.1436 4.01235 19.7262V46.9866H2.44775V18.425ZM63.9871 46.9866V19.7262C63.9871 19.1436 63.515 18.6715 62.9324 18.6715H57.8621V17.1073H64.2341C64.9608 17.1073 65.5518 17.6984 65.5518 18.425V46.9865H63.9871V46.9866Z" fill="#40D153"/>
<path d="M27.2475 20.7141C26.3184 20.7141 25.5625 21.47 25.5625 22.3991V38.0729C25.5625 39.002 26.3184 39.7578 27.2475 39.7578H31.4415C32.3706 39.7578 33.1266 39.002 33.1266 38.0729V22.3991C33.1266 21.47 32.3706 20.7141 31.4415 20.7141H27.2475ZM31.0172 37.6486H27.6717V22.8235H31.0172V37.6486Z" fill="#40D153"/>
<path d="M36.5575 27.7454C35.6284 27.7454 34.8726 28.5012 34.8726 29.4303V38.0729C34.8726 39.002 35.6284 39.7578 36.5575 39.7578H40.7517C41.6808 39.7578 42.4366 39.002 42.4366 38.0729V29.4303C42.4366 28.5012 41.6808 27.7454 40.7517 27.7454H36.5575ZM40.3274 37.6486H36.9819V29.8547H40.3274V37.6486Z" fill="#40D153"/>
<path d="M44.1831 18.8835V38.0729C44.1831 39.002 44.939 39.7578 45.8681 39.7578H50.0621C50.9912 39.7578 51.747 39.002 51.747 38.0729V18.8835C51.747 17.9543 50.9912 17.1985 50.0621 17.1985H45.8681C44.939 17.1985 44.1831 17.9543 44.1831 18.8835ZM46.2925 19.3079H49.6378V37.6486H46.2925V19.3079Z" fill="#40D153"/>
<path d="M47.9652 7.4541C46.5761 7.4541 45.4459 8.5843 45.4459 9.9734C45.4459 10.2279 45.4845 10.4735 45.5551 10.7052L39.8666 15.7642C39.5068 15.5661 39.0941 15.4526 38.6552 15.4526C37.7462 15.4526 36.9506 15.938 36.5075 16.6617L31.8141 15.5523C31.5814 14.4021 30.5628 13.5332 29.345 13.5332C27.9559 13.5332 26.8257 14.6634 26.8257 16.0525C26.8257 16.1532 26.8333 16.252 26.8448 16.3498L21.2336 19.7949C20.877 19.6011 20.4686 19.4909 20.0349 19.4909C18.6458 19.4909 17.5156 20.6211 17.5156 22.0102C17.5156 23.3993 18.6458 24.5295 20.0349 24.5295C21.424 24.5295 22.5542 23.3993 22.5542 22.0102C22.5542 21.8327 22.5352 21.6596 22.5002 21.4924L27.9483 18.1475C28.3484 18.4151 28.8286 18.5718 29.345 18.5718C30.1487 18.5718 30.8639 18.1921 31.3256 17.6043L36.2685 18.7726C36.6042 19.77 37.5463 20.4912 38.6552 20.4912C40.0443 20.4912 41.1745 19.361 41.1745 17.9717C41.1745 17.7996 41.1569 17.6314 41.1239 17.4688L46.9577 12.2806C47.2667 12.4161 47.607 12.4924 47.9653 12.4924C49.3544 12.4924 50.4846 11.3622 50.4846 9.97312C50.4846 8.58402 49.3543 7.4541 47.9652 7.4541ZM20.0348 22.4204C19.8088 22.4204 19.6249 22.2365 19.6249 22.0105C19.6249 21.7845 19.8088 21.6006 20.0348 21.6006C20.2608 21.6006 20.4447 21.7845 20.4447 22.0105C20.4447 22.2365 20.2608 22.4204 20.0348 22.4204ZM29.3449 16.4625C29.1189 16.4625 28.9349 16.2786 28.9349 16.0526C28.9349 15.8266 29.1189 15.6427 29.3449 15.6427C29.5708 15.6427 29.7548 15.8266 29.7548 16.0526C29.7548 16.2786 29.5708 16.4625 29.3449 16.4625ZM38.6551 18.3821C38.4291 18.3821 38.245 18.198 38.245 17.972C38.245 17.746 38.4291 17.5621 38.6551 17.5621C38.8811 17.5621 39.065 17.746 39.065 17.972C39.065 18.198 38.8811 18.3821 38.6551 18.3821ZM47.9652 10.3833C47.7392 10.3833 47.5552 10.1994 47.5552 9.9734C47.5552 9.74741 47.7392 9.56348 47.9652 9.56348C48.1911 9.56348 48.3751 9.74741 48.3751 9.9734C48.3751 10.1994 48.1913 10.3833 47.9652 10.3833Z" fill="#40D153"/>
<path d="M17.3071 35.4069C16.7245 35.4069 16.2524 35.879 16.2524 36.4616V38.0729C16.2524 39.002 17.0083 39.7578 17.9374 39.7578H22.1315C23.0607 39.7578 23.8165 39.002 23.8165 38.0729V28.0241C23.8165 27.095 23.0607 26.3391 22.1315 26.3391H17.9374C17.0083 26.3391 16.2524 27.095 16.2524 28.0241V32.2447C16.2524 32.8273 16.7245 33.2993 17.3071 33.2993C17.8897 33.2993 18.3618 32.8273 18.3618 32.2447V28.4485H21.7073V37.6486H18.3618V36.4617C18.3618 35.8791 17.8897 35.4069 17.3071 35.4069Z" fill="#40D153"/>
</svg>
