<svg width="72" height="72" viewBox="0 0 72 72" fill="none" xmlns="http://www.w3.org/2000/svg">
<g clip-path="url(#clip0_29222_1005)">
<path d="M54.4158 54.9849L44.1018 50.5678C43.2447 50.2007 42.6909 49.3611 42.6909 48.4286V44.2879C46.4418 42.1287 49.0598 38.2134 49.4136 33.6728H50.0908C51.1831 33.6728 52.2299 33.208 52.9632 32.3979C53.6958 31.588 54.0531 30.4969 53.9437 29.4041C53.855 28.5192 53.4425 27.7218 52.8272 27.1142C52.8327 27.0707 52.8363 27.0267 52.8363 26.9819V23.6C52.8363 18.0904 50.1761 13.1905 46.0727 10.1171C46.0715 4.56384 41.5533 0 35.9998 0C30.4492 0 25.9332 4.55906 25.9273 10.1084C25.4324 10.4787 24.955 10.8769 24.4986 11.3041C21.3846 14.218 19.5048 18.1579 19.2056 22.3985C19.1645 22.9795 19.6023 23.4838 20.1833 23.5249C20.7619 23.565 21.2687 23.1282 21.3097 22.5471C21.5713 18.8393 23.2158 15.3935 25.9398 12.8445C28.6767 10.2833 32.2494 8.87302 35.9998 8.87302C44.1204 8.87302 50.7269 15.4794 50.7269 23.6001V26.0056C50.4682 25.9547 50.2017 25.9273 49.9297 25.9273H48.3999C47.7382 25.9273 47.2001 25.3891 47.2001 24.7275V23.9835C47.2001 21.7038 45.9105 19.7196 44.0214 18.7217C44.9924 18.146 45.5507 17.7522 45.631 17.6947C46.1047 17.3564 46.2143 16.6984 45.8762 16.2245C45.5383 15.7506 44.8797 15.6403 44.4056 15.9778C44.3337 16.029 37.1007 21.1092 26.8381 22.4263C25.676 22.5755 24.7996 23.5627 24.7996 24.7274C24.7996 25.389 24.2615 25.9272 23.5998 25.9272H21.9091C20.8167 25.9272 19.7699 26.3919 19.0367 27.2021C18.304 28.0118 17.9466 29.1029 18.056 30.1956C18.2512 32.1455 20.0142 33.6729 22.07 33.6729H22.5858C22.832 36.8692 24.1949 39.8409 26.486 42.132C27.34 42.986 28.2891 43.7105 29.3086 44.2969V48.4286C29.3086 49.3611 28.7548 50.2007 27.8977 50.5678L17.5839 54.9849C15.1194 56.0405 13.5269 58.4547 13.5269 61.1356V70.9453C13.5269 71.5279 13.9989 72 14.5815 72C15.1642 72 15.6362 71.5279 15.6362 70.9453V61.1356C15.6362 59.2997 16.7266 57.6465 18.4143 56.924L24.7995 54.1894V60.8725H21.3453C19.5206 60.8725 18.0361 62.3571 18.0361 64.1817V68.6907C18.0361 70.5154 19.5207 71.9999 21.3453 71.9999C21.9279 71.9999 22.4 71.5278 22.4 70.9452C22.4 70.3626 21.9279 69.8905 21.3453 69.8905C20.6837 69.8905 20.1455 69.3523 20.1455 68.6907V64.1817C20.1455 63.52 20.6837 62.9819 21.3453 62.9819H30.3635C31.0251 62.9819 31.5633 63.52 31.5633 64.1817V68.6907C31.5633 69.3523 31.0251 69.8905 30.3635 69.8905C29.7809 69.8905 29.3088 70.3626 29.3088 70.9452C29.3088 71.5278 29.7809 71.9999 30.3635 71.9999C32.1882 71.9999 33.6726 70.5153 33.6726 68.6907V64.1817C33.6726 62.3569 32.1881 60.8725 30.3635 60.8725H26.9091V54.8798L34.1643 59.7165C34.7218 60.0882 35.3608 60.274 36 60.274C36.639 60.274 37.2781 60.0881 37.8357 59.7164L45.0908 54.8796V63.2547C43.1522 63.7293 41.7089 65.4805 41.7089 67.5634C41.7089 70.0097 43.6991 72 46.1455 72C48.5918 72 50.582 70.0099 50.582 67.5634C50.582 65.4806 49.1389 63.7294 47.2002 63.2547V54.1893L53.5856 56.9239C55.2731 57.6465 56.3635 59.2997 56.3635 61.1355V70.9453C56.3635 71.5279 56.8355 72 57.4182 72C58.0008 72 58.4728 71.5279 58.4728 70.9453V61.1356C58.4727 58.4547 56.8801 56.0405 54.4158 54.9849V54.9849ZM28.1576 8.69822C28.8111 4.96027 32.0777 2.10938 35.9998 2.10938C39.9248 2.10938 43.1934 4.96434 43.8435 8.70623C41.4997 7.46691 38.8305 6.76364 35.9998 6.76364C33.2338 6.76364 30.5527 7.43569 28.1576 8.69822V8.69822ZM24.6548 32.6181C24.6548 32.3384 24.5437 32.0702 24.3458 31.8722C24.1481 31.6745 23.8798 31.5634 23.6 31.5634L22.0698 31.5636C21.0846 31.5636 20.2435 30.8704 20.1549 29.9855C20.104 29.4772 20.2624 28.9914 20.6007 28.6173C20.9348 28.2482 21.4117 28.0364 21.9091 28.0364H23.5998C25.4246 28.0364 26.909 26.5518 26.909 24.7227C26.909 24.6191 26.9921 24.533 27.1066 24.5185C33.1459 23.7433 38.1212 21.7741 41.3911 20.148C43.4436 20.221 45.0905 21.9135 45.0905 23.9832V24.7272C45.0905 26.552 46.5751 28.0364 48.3997 28.0364H49.9296C50.9148 28.0364 51.756 28.7295 51.8446 29.6144C51.8955 30.1226 51.7372 30.6084 51.3988 30.9825C51.0649 31.3516 50.588 31.5634 50.0905 31.5634L48.3996 31.5636C47.8171 31.5636 47.345 32.0358 47.345 32.6182C47.345 38.874 42.2557 43.9635 35.9998 43.9635C32.9694 43.9635 30.1203 42.7833 27.9775 40.6405C25.8349 38.4976 24.6548 35.6486 24.6548 32.6181V32.6181ZM36.6654 57.9613C36.2613 58.2308 35.7386 58.231 35.3341 57.9614L27.7688 52.9177L28.7284 52.5068C30.3623 51.807 31.4181 50.2062 31.4181 48.4286V45.2758C32.8679 45.7995 34.4128 46.0728 36 46.0728C37.608 46.0728 39.1508 45.7883 40.5815 45.2686V48.4286C40.5815 50.2062 41.6374 51.807 43.2713 52.5068L44.2309 52.9177L36.6654 57.9613ZM48.4723 67.5634C48.4723 68.8466 47.4284 69.8906 46.1452 69.8906C44.862 69.8906 43.818 68.8466 43.818 67.5634C43.818 66.2802 44.862 65.2364 46.1452 65.2364C47.4284 65.2364 48.4723 66.2802 48.4723 67.5634Z" fill="#40D153"/>
<path d="M30.3638 28.1816C29.7812 28.1816 29.3091 28.6537 29.3091 29.2363V30.3636C29.3091 30.9462 29.7812 31.4183 30.3638 31.4183C30.9464 31.4183 31.4185 30.9462 31.4185 30.3636V29.2363C31.4185 28.6539 30.9464 28.1816 30.3638 28.1816Z" fill="#40D153"/>
<path d="M41.6362 31.4183C42.2188 31.4183 42.6909 30.9462 42.6909 30.3636V29.2363C42.6909 28.6537 42.2188 28.1816 41.6362 28.1816C41.0536 28.1816 40.5815 28.6537 40.5815 29.2363V30.3636C40.5815 30.9462 41.0536 31.4183 41.6362 31.4183Z" fill="#40D153"/>
<path d="M40.1958 35.3291C39.8251 34.8796 39.1606 34.8158 38.7111 35.1861C38.0276 35.7494 37.0394 36.0726 36.0001 36.0726C34.9607 36.0726 33.9726 35.7494 33.2891 35.1861C32.8395 34.8154 32.1748 34.8795 31.8044 35.3291C31.4339 35.7785 31.4978 36.4432 31.9474 36.8138C33.0177 37.6961 34.4571 38.1819 36.0001 38.1819C37.543 38.1819 38.9825 37.6961 40.0528 36.8138C40.5023 36.4432 40.5663 35.7786 40.1958 35.3291V35.3291Z" fill="#40D153"/>
<path d="M69.7373 51.3946L65.2863 49.911C65.2565 49.901 65.2366 49.8731 65.2366 49.8419V46.9417C67.2777 45.5295 68.6183 43.1735 68.6183 40.5091V37.1273C68.6183 34.0594 66.1224 31.5635 63.0546 31.5635H58.5456C55.4779 31.5635 52.9819 34.0594 52.9819 37.1273V40.5091C52.9819 43.1735 54.3226 45.5296 56.3638 46.9418V49.8419C56.3638 49.8733 56.3437 49.901 56.3142 49.9108L54.8304 50.4054C54.2778 50.5896 53.9791 51.187 54.1633 51.7394C54.3107 52.1815 54.7222 52.4609 55.1637 52.4609C55.2743 52.4609 55.3868 52.4433 55.4973 52.4065L56.4472 52.0898L59.491 54.3726C59.8765 54.6617 60.3383 54.8061 60.8004 54.8061C61.2622 54.8061 61.724 54.6617 62.1095 54.3726L64.2547 52.7638V57.6639C62.9458 58.1053 62.0002 59.3438 62.0002 60.7998C62.0002 62.6246 63.4848 64.109 65.3094 64.109C67.134 64.109 68.6186 62.6244 68.6186 60.7998C68.6186 59.3439 67.673 58.1055 66.3641 57.6639V52.4935L69.0707 53.3956C69.5613 53.5592 69.8911 54.0165 69.8911 54.5339V63.0543C69.8911 63.6369 70.3632 64.109 70.9458 64.109C71.5284 64.109 72.0005 63.6369 72.0005 63.0543V54.5339C72.0001 53.1071 71.0906 51.8455 69.7373 51.3946V51.3946ZM55.091 40.5089V37.1272C55.091 35.2223 56.6407 33.6727 58.5453 33.6727H63.0543C64.9591 33.6727 66.5087 35.2224 66.5087 37.1272V40.5089C66.5087 43.6568 63.9476 46.2179 60.7997 46.2179C57.6518 46.2179 55.091 43.6568 55.091 40.5089V40.5089ZM60.8433 52.6852C60.8177 52.7042 60.7818 52.7043 60.7564 52.6851L58.2486 50.8044C58.3926 50.5114 58.4728 50.1841 58.4728 49.8418V47.9734C59.2081 48.2032 59.9897 48.3271 60.7998 48.3271C61.61 48.3271 62.3916 48.2031 63.127 47.9734V49.8418C63.127 50.1841 63.2073 50.5114 63.3512 50.8044L60.8433 52.6852ZM65.309 61.9996C64.6473 61.9996 64.1092 61.4615 64.1092 60.7998C64.1092 60.1382 64.6473 59.6 65.309 59.6C65.9706 59.6 66.5088 60.1382 66.5088 60.7998C66.5088 61.4615 65.9706 61.9996 65.309 61.9996Z" fill="#40D153"/>
<path d="M9.89086 54.3726C10.2763 54.6618 10.7381 54.8063 11.2002 54.8063C11.662 54.8063 12.1238 54.6618 12.5094 54.3727L15.5533 52.0899L16.5032 52.4065C16.6137 52.4435 16.7262 52.4609 16.8367 52.4609C17.2783 52.4609 17.6898 52.1815 17.8372 51.7394C18.0214 51.1869 17.7227 50.5895 17.17 50.4054L15.6866 49.911C15.6568 49.901 15.6368 49.8731 15.6368 49.8419V46.9418C17.678 45.5296 19.0187 43.1735 19.0187 40.5091V36.0001C19.0187 33.5537 17.0286 31.5635 14.5821 31.5635H7.81833C5.37202 31.5635 3.38189 33.5536 3.38189 36.0001V40.5091C3.38189 43.1735 4.72247 45.5295 6.76364 46.9417V49.8419C6.76364 49.8733 6.74353 49.901 6.71386 49.9108L2.26294 51.3946C0.909422 51.8457 0 53.1072 0 54.534V63.0545C0 63.6371 0.472078 64.1092 1.05469 64.1092C1.6373 64.1092 2.10938 63.6371 2.10938 63.0545V54.534C2.10938 54.0166 2.43914 53.5593 2.92992 53.3958L6.76364 52.1178V57.4906H5.56383C4.36064 57.4906 3.38189 58.4695 3.38189 59.6727V61.9272C3.38189 63.1304 4.36064 64.1092 5.56383 64.1092C6.14644 64.1092 6.61852 63.6371 6.61852 63.0545C6.61852 62.4719 6.14644 61.9998 5.56383 61.9998C5.52389 61.9998 5.49127 61.9673 5.49127 61.9272V59.6727C5.49127 59.6326 5.52375 59.6 5.56383 59.6H10.0728C10.1129 59.6 10.1455 59.6325 10.1455 59.6727V61.9272C10.1455 61.9672 10.113 61.9998 10.0728 61.9998C9.49022 61.9998 9.01814 62.4719 9.01814 63.0545C9.01814 63.6371 9.49022 64.1092 10.0728 64.1092C11.276 64.1092 12.2549 63.1304 12.2549 61.9272V59.6727C12.2549 58.4695 11.276 57.4906 10.0728 57.4906H8.87302V53.6093L9.89086 54.3726ZM7.81833 33.6729H14.582C15.8652 33.6729 16.9092 34.7169 16.9092 36.0001V38.2831C13.5263 38.001 11.1538 36.4301 10.2371 35.7173C9.46462 35.1166 8.37717 35.1082 7.59305 35.6962L5.49141 37.2726V36.0001C5.49127 34.7169 6.53513 33.6729 7.81833 33.6729V33.6729ZM5.49127 40.5091V39.9091L8.85853 37.3835C8.8747 37.3713 8.90733 37.3554 8.94206 37.3824C10.29 38.4302 13.0358 40.1289 16.909 40.3987V40.5089C16.909 43.6568 14.348 46.2179 11.2001 46.2179C8.05219 46.2179 5.49127 43.6569 5.49127 40.5091V40.5091ZM11.2002 48.3274C12.0102 48.3274 12.792 48.2035 13.5273 47.9737V49.8421C13.5273 50.1843 13.6074 50.5117 13.7514 50.8046L11.2437 52.6852C11.2181 52.7045 11.1821 52.7045 11.1566 52.6852L8.64886 50.8045C8.79286 50.5116 8.87302 50.1842 8.87302 49.8419V47.9736C9.60834 48.2035 10.3901 48.3274 11.2002 48.3274Z" fill="#40D153"/>
</g>
<defs>
<clipPath id="clip0_29222_1005">
<rect width="72" height="72" fill="white"/>
</clipPath>
</defs>
</svg>
