<svg width="72" height="72" viewBox="0 0 72 72" fill="none" xmlns="http://www.w3.org/2000/svg">
<g clip-path="url(#clip0_29222_249)">
<path d="M53.2656 29.4419C53.1131 29.1263 53.0477 28.7751 53.0766 28.426L54.0906 16.1712C54.2047 14.792 53.6939 13.455 52.6893 12.5031C51.685 11.5511 50.3214 11.1132 48.9514 11.3008C47.8969 11.4454 46.8763 11.7896 45.9513 12.3083C45.8783 12.2082 45.803 12.1093 45.7227 12.0134C43.8142 9.73646 40.4095 9.43637 38.1328 11.344L29.8857 18.2462V16.7021C29.8857 16.587 29.9199 16.476 29.9849 16.381L31.6954 13.8779C32.0236 13.3977 31.9003 12.7423 31.4201 12.4142C30.9395 12.0857 30.2843 12.2093 29.9563 12.6895L28.2458 15.1926C27.9407 15.6391 27.7793 16.1611 27.7793 16.7021V20.0091L21.2159 25.5022V15.5825C21.2159 14.4472 21.5545 13.3516 22.1951 12.4143L28.219 3.59857C28.7135 2.87483 29.4603 2.387 30.3218 2.22496C31.1833 2.06291 32.0562 2.24588 32.78 2.74059C33.5038 3.23502 33.9916 3.98193 34.1537 4.84342C34.3157 5.70477 34.1327 6.57792 33.6382 7.30152L32.5329 8.91919C32.2047 9.39958 32.3282 10.0548 32.8083 10.383C33.2882 10.7111 33.9439 10.5877 34.2719 10.1076L35.3772 8.48992C36.1891 7.30166 36.4897 5.86837 36.2236 4.45403C35.9575 3.03969 35.1566 1.81338 33.9683 1.00145C32.7802 0.189527 31.3469 -0.111118 29.9323 0.154983C28.5179 0.421084 27.2918 1.22206 26.4798 2.41031L20.456 11.2261C19.5752 12.5151 19.1096 14.0216 19.1096 15.5827V27.2652L15.9509 29.9086C13.6807 31.8087 12.4639 34.705 12.6961 37.6563L13.3666 46.1808C13.41 46.7327 13.8711 47.1516 14.4154 47.1514C14.4431 47.1514 14.471 47.1503 14.4991 47.1482C15.0789 47.1027 15.5121 46.5955 15.4665 46.0158L14.7959 37.4913C14.6172 35.2181 15.5544 32.9874 17.3029 31.524L39.4852 12.959C40.8721 11.7967 42.9461 11.9796 44.1084 13.3664C45.2705 14.7533 45.0878 16.8272 43.7009 17.9895L32.154 27.6662C31.4368 27.8396 30.7501 28.1846 30.155 28.7024L24.5111 33.6149C24.0724 33.9969 24.0264 34.6621 24.4082 35.1008C24.7901 35.5394 25.4552 35.5854 25.8941 35.2037L31.538 30.2911C32.5196 29.4364 33.9517 29.4282 34.9433 30.2716L43.4793 37.5322C44.147 38.1002 44.5535 38.8941 44.624 39.7679C44.6946 40.6417 44.4207 41.4906 43.8527 42.1581C43.4374 42.6462 42.8887 42.9973 42.2802 43.1768L36.308 38.097C34.5168 36.5732 31.9291 36.5881 30.1551 38.1321L24.5112 43.0446C24.0726 43.4266 24.0265 44.0917 24.4083 44.5304C24.7903 44.9693 25.4553 45.0152 25.8943 44.6334L31.5381 39.7208C32.5197 38.8662 33.9519 38.8578 34.9434 39.7013L43.4794 46.9619C44.1471 47.5299 44.5537 48.3238 44.6242 49.1975C44.6948 50.0714 44.4208 50.9202 43.8528 51.5878C43.2849 52.2555 42.491 52.662 41.6173 52.7325C40.7423 52.8029 39.8944 52.5291 39.227 51.9612L33.9432 47.4668C33.525 47.1111 32.9042 47.1363 32.5161 47.5242L30.948 49.0923C30.5367 49.5038 30.5367 50.1705 30.948 50.5818C31.3593 50.993 32.0261 50.993 32.4373 50.5818L33.3184 49.7007L37.8621 53.5655C38.8452 54.4019 40.0676 54.8498 41.3443 54.8498C41.491 54.8498 41.6388 54.8438 41.7866 54.8319C43.2211 54.7161 44.5246 54.0486 45.4571 52.9523C46.3897 51.856 46.8395 50.4623 46.7236 49.0278C46.6079 47.5932 45.9403 46.2896 44.8441 45.3571L44.059 44.6894C44.5837 44.3845 45.0581 43.9916 45.4571 43.5225C47.3821 41.2596 47.1071 37.8523 44.8441 35.9273L41.0595 32.7082L43.3469 21.0339L45.054 19.6033C46.157 18.679 46.8341 17.3804 46.9605 15.9467C47.0119 15.3631 46.968 14.7861 46.8374 14.232C47.5707 13.7945 48.3886 13.5034 49.2378 13.3872C49.9722 13.2861 50.7025 13.5213 51.2409 14.0314C51.7791 14.5416 52.0528 15.2579 51.9917 15.9971L50.9777 28.2519C50.9178 28.9756 51.0534 29.7042 51.3697 30.3583L53.245 34.2369C55.6079 39.124 55.6878 44.767 53.4642 49.7192L52.2584 52.4046C52.0201 52.9353 52.2571 53.5586 52.7878 53.7968C52.9279 53.8597 53.0744 53.8895 53.2186 53.8895C53.6205 53.8895 54.0046 53.6581 54.1799 53.2674L55.3857 50.582C57.8651 45.0607 57.7759 38.7689 55.1414 33.3199L53.2656 29.4419ZM39.2194 31.1439L36.3078 28.6673C35.9414 28.3557 35.5415 28.1095 35.1223 27.9266L40.7784 23.1867L39.2194 31.1439Z" fill="#40D153"/>
<path d="M51.8019 55.9914C51.2713 55.7532 50.6481 55.9898 50.4098 56.5207L47.7125 62.5273C47.6516 62.663 47.6201 62.81 47.6201 62.9587V70.9468C47.6201 71.5286 48.0915 72 48.6733 72C49.2551 72 49.7265 71.5286 49.7265 70.9468V63.1844L52.3313 57.3835C52.5696 56.853 52.3324 56.2297 51.8019 55.9914Z" fill="#40D153"/>
<path d="M45.6879 6.5541C46.2697 6.5541 46.7411 6.0827 46.7411 5.50092V1.05317C46.7411 0.471399 46.2697 0 45.6879 0C45.1062 0 44.6348 0.471399 44.6348 1.05317V5.50092C44.6348 6.08256 45.1063 6.5541 45.6879 6.5541Z" fill="#40D153"/>
<path d="M50.1839 7.60157C50.3462 7.692 50.5219 7.73469 50.6955 7.73469C51.0652 7.73469 51.424 7.53965 51.6166 7.19378L53.7807 3.308C54.0636 2.79981 53.8811 2.15836 53.373 1.87541C52.8649 1.59246 52.2234 1.77501 51.9404 2.28306L49.7764 6.16884C49.4933 6.67717 49.6758 7.31848 50.1839 7.60157V7.60157Z" fill="#40D153"/>
<path d="M59.1738 7.25333C58.8675 6.7589 58.2186 6.60641 57.7239 6.91253L53.9426 9.25436C53.4482 9.56062 53.2955 10.2098 53.6018 10.7042C53.8011 11.0259 54.1455 11.203 54.4981 11.203C54.6874 11.203 54.879 11.152 55.0517 11.045L58.833 8.7032C59.3276 8.39708 59.4802 7.7479 59.1738 7.25333V7.25333Z" fill="#40D153"/>
<path d="M18.8876 57.6566C17.2358 55.5809 16.1811 53.0902 15.8374 50.454C15.7621 49.8775 15.2342 49.4719 14.6568 49.5458C14.0801 49.6211 13.6735 50.1496 13.7487 50.7263C14.1419 53.7425 15.349 56.5925 17.2393 58.968L21.5846 64.4289V70.8784C21.5846 71.4602 22.0561 71.9316 22.6378 71.9316C23.2194 71.9316 23.6909 71.4602 23.6909 70.8784V64.061C23.6909 63.8229 23.6102 63.5916 23.4619 63.4053L18.8876 57.6566Z" fill="#40D153"/>
</g>
<defs>
<clipPath id="clip0_29222_249">
<rect width="72" height="72" fill="white"/>
</clipPath>
</defs>
</svg>
