<svg width="72" height="72" viewBox="0 0 72 72" fill="none" xmlns="http://www.w3.org/2000/svg">
<path d="M46.2317 7.20005C46.2317 6.57201 45.7227 6.06323 45.0949 6.06323H26.9054C26.2775 6.06323 25.7686 6.57215 25.7686 7.20005C25.7686 7.82794 26.2776 8.33686 26.9054 8.33686H45.0948C45.7227 8.33686 46.2317 7.82808 46.2317 7.20005Z" fill="#40D153"/>
<path d="M41.6843 11.7474C41.6843 11.1194 41.1753 10.6106 40.5475 10.6106H31.4527C30.8248 10.6106 30.3159 11.1195 30.3159 11.7474C30.3159 12.3753 30.825 12.8842 31.4527 12.8842H40.5475C41.1753 12.8842 41.6843 12.3754 41.6843 11.7474Z" fill="#40D153"/>
<path d="M66.3158 60.6316H64.421V55.7052C64.421 54.2426 63.2309 53.0526 61.7684 53.0526H50.779V47.7474H55.7054C58.8398 47.7474 61.3896 45.1976 61.3896 42.0632C61.3896 38.9288 58.8398 36.379 55.7054 36.379H50.779V31.4526C50.779 29.99 49.5889 28.8 48.1264 28.8H37.137V18.9474H47.3685C52.5922 18.9474 56.8422 14.6976 56.8422 9.47377C56.8422 4.24983 52.5922 0 47.3684 0H24.6316C19.4079 0 15.158 4.24983 15.158 9.47362C15.158 14.6976 19.4079 18.9472 24.6316 18.9472H34.8632V28.8H23.8738C22.4111 28.8 21.2212 29.9901 21.2212 31.4526V36.379H16.2948C13.1604 36.379 10.6106 38.9288 10.6106 42.0632C10.6106 45.1976 13.1604 47.7474 16.2948 47.7474H21.0316V53.0526H10.2316C8.76895 53.0526 7.57898 54.2427 7.57898 55.7052V60.6316H5.6842C2.54981 60.6316 0 63.1814 0 66.3158C0 69.4502 2.54981 72 5.6842 72H11.7474C14.8818 72 17.4316 69.4502 17.4316 66.3158C17.4316 63.1814 14.8818 60.6316 11.7474 60.6316H9.85261V55.7052C9.85261 55.4963 10.0226 55.3262 10.2316 55.3262H34.8632V60.6315H32.5896C29.4552 60.6315 26.9054 63.1813 26.9054 66.3157C26.9054 69.4501 29.4552 71.9999 32.5896 71.9999H39.4106C42.545 71.9999 45.0948 69.4501 45.0948 66.3157C45.0948 63.1813 42.545 60.6315 39.4106 60.6315H37.137V55.3262H61.7685C61.9774 55.3262 62.1475 55.4961 62.1475 55.7052V60.6316H60.2527C57.1184 60.6316 54.5685 63.1814 54.5685 66.3158C54.5685 69.4502 57.1184 72 60.2527 72H66.3159C69.4502 72 72 69.4502 72 66.3158C72 63.1814 69.4502 60.6316 66.3158 60.6316ZM11.7474 62.9052C13.628 62.9052 15.158 64.4352 15.158 66.3158C15.158 68.1964 13.6281 69.7264 11.7474 69.7264H5.6842C3.80363 69.7264 2.27362 68.1964 2.27362 66.3158C2.27362 64.4352 3.80348 62.9052 5.6842 62.9052H11.7474ZM24.6316 16.6736C20.6616 16.6736 17.4316 13.4436 17.4316 9.47362C17.4316 5.50364 20.6616 2.27362 24.6316 2.27362H47.3684C51.3384 2.27362 54.5684 5.50364 54.5684 9.47362C54.5684 13.4436 51.3384 16.6736 47.3684 16.6736H36H24.6316ZM16.2948 45.4736C14.4142 45.4736 12.8842 43.9436 12.8842 42.063C12.8842 40.1825 14.4141 38.6525 16.2948 38.6525H28.4212C30.3017 38.6525 31.8317 40.1825 31.8317 42.063C31.8317 43.9436 30.3019 45.4736 28.4212 45.4736H22.1685H16.2948ZM39.4106 62.9052C41.2912 62.9052 42.8212 64.4352 42.8212 66.3158C42.8212 68.1964 41.2913 69.7264 39.4106 69.7264H32.5896C30.709 69.7264 29.179 68.1964 29.179 66.3158C29.179 64.4352 30.7088 62.9052 32.5896 62.9052H39.4106ZM48.5052 53.0526H36H23.3052V47.7474H28.421C31.5554 47.7474 34.1052 45.1976 34.1052 42.0632C34.1052 38.9288 31.5554 36.379 28.421 36.379H23.4946V31.4526C23.4946 31.2436 23.6647 31.0736 23.8736 31.0736H48.1262C48.3351 31.0736 48.5052 31.2435 48.5052 31.4526V36.379H43.5788C40.4445 36.379 37.8946 38.9288 37.8946 42.0632C37.8946 45.1976 40.4445 47.7474 43.5788 47.7474H48.5052V53.0526ZM43.579 45.4736C41.6984 45.4736 40.1684 43.9436 40.1684 42.063C40.1684 40.1825 41.6983 38.6525 43.579 38.6525H55.7054C57.5859 38.6525 59.1159 40.1825 59.1159 42.063C59.1159 43.9436 57.5861 45.4736 55.7054 45.4736H49.642H43.579ZM66.3158 69.7264H60.2526C58.372 69.7264 56.842 68.1964 56.842 66.3158C56.842 64.4352 58.3719 62.9052 60.2526 62.9052H66.3158C68.1964 62.9052 69.7264 64.4352 69.7264 66.3158C69.7264 68.1964 68.1964 69.7264 66.3158 69.7264Z" fill="#40D153"/>
</svg>
