<svg width="90" height="90" fill="none" xmlns="http://www.w3.org/2000/svg"><g clip-path="url(#clip0)"><path d="M42.3409 2.54076C43.0916 0.589136 45.8528 0.589135 46.6035 2.54076C47.2777 4.29364 49.6619 4.52846 50.6652 2.94081C51.7822 1.17314 54.4904 1.71182 54.8459 3.7724C55.1652 5.62314 57.4578 6.31858 58.7515 4.95716C60.192 3.44138 62.743 4.49804 62.6897 6.5884C62.6418 8.46588 64.7547 9.59521 66.2891 8.51235C67.9976 7.3067 70.2934 8.84074 69.8334 10.8805C69.4202 12.7126 71.2721 14.2324 72.9883 13.4697C74.8992 12.6205 76.8516 14.573 76.0024 16.4838C75.2397 18.2001 76.7596 20.052 78.5916 19.6388C80.6314 19.1787 82.1655 21.4746 80.9598 23.183C79.877 24.7175 81.0063 26.8303 82.8838 26.7825C84.9741 26.7292 86.0308 29.2802 84.515 30.7206C83.1536 32.0144 83.849 34.3069 85.6998 34.6263C87.7603 34.9818 88.299 37.6899 86.5314 38.807C84.9437 39.8102 85.1785 42.1944 86.9314 42.8687C88.883 43.6194 88.883 46.3806 86.9314 47.1313C85.1785 47.8056 84.9437 50.1898 86.5314 51.193C88.299 52.3101 87.7604 55.0182 85.6998 55.3737C83.849 55.6931 83.1536 57.9856 84.515 59.2794C86.0308 60.7198 84.9741 63.2708 82.8838 63.2175C81.0063 63.1697 79.877 65.2825 80.9598 66.817C82.1655 68.5254 80.6314 70.8213 78.5916 70.3612C76.7596 69.948 75.2397 71.7999 76.0024 73.5162C76.8516 75.427 74.8992 77.3794 72.9883 76.5303C71.2721 75.7676 69.4202 77.2874 69.8334 79.1195C70.2934 81.1593 67.9976 82.6933 66.2891 81.4877C64.7547 80.4048 62.6418 81.5341 62.6897 83.4116C62.743 85.502 60.192 86.5586 58.7515 85.0428C57.4578 83.6814 55.1652 84.3769 54.8459 86.2276C54.4904 88.2882 51.7822 88.8269 50.6652 87.0592C49.6619 85.4715 47.2777 85.7064 46.6035 87.4592C45.8528 89.4109 43.0916 89.4109 42.3409 87.4592C41.6666 85.7064 39.2824 85.4715 38.2791 87.0592C37.1621 88.8269 34.454 88.2882 34.0984 86.2276C33.7791 84.3769 31.4865 83.6814 30.1928 85.0428C28.7524 86.5586 26.2014 85.502 26.2547 83.4116C26.3025 81.5341 24.1897 80.4048 22.6552 81.4877C20.9467 82.6933 18.6509 81.1593 19.111 79.1195C19.5242 77.2874 17.6723 75.7676 15.956 76.5303C14.0452 77.3794 12.0927 75.427 12.9419 73.5162C13.7046 71.7999 12.1848 69.948 10.3527 70.3612C8.3129 70.8213 6.77887 68.5254 7.98451 66.817C9.06738 65.2825 7.93804 63.1697 6.06056 63.2175C3.97021 63.2708 2.91355 60.7198 4.42933 59.2794C5.79075 57.9856 5.09531 55.6931 3.24457 55.3737C1.18399 55.0182 0.645305 52.3101 2.41297 51.193C4.00063 50.1898 3.76581 47.8056 2.01293 47.1313C0.0613036 46.3806 0.0613034 43.6194 2.01293 42.8687C3.76581 42.1944 4.00063 39.8102 2.41298 38.807C0.645305 37.6899 1.18399 34.9818 3.24457 34.6263C5.09531 34.3069 5.79075 32.0144 4.42933 30.7206C2.91355 29.2802 3.97021 26.7292 6.06056 26.7825C7.93804 26.8303 9.06738 24.7175 7.98451 23.183C6.77887 21.4746 8.3129 19.1787 10.3527 19.6388C12.1848 20.052 13.7046 18.2001 12.9419 16.4838C12.0927 14.573 14.0452 12.6205 15.956 13.4697C17.6723 14.2324 19.5242 12.7126 19.111 10.8805C18.6509 8.84074 20.9467 7.3067 22.6552 8.51234C24.1897 9.59521 26.3025 8.46588 26.2547 6.5884C26.2014 4.49804 28.7524 3.44138 30.1928 4.95716C31.4865 6.31859 33.7791 5.62315 34.0984 3.7724C34.454 1.71182 37.1621 1.17314 38.2791 2.94081C39.2824 4.52846 41.6666 4.29364 42.3409 2.54076Z" fill="#FC3F1D"/><path d="M74.703 45.1476C74.703 61.9252 61.1022 75.526 44.3247 75.526C27.5472 75.526 13.9463 61.9252 13.9463 45.1476C13.9463 28.3701 27.5472 14.7693 44.3247 14.7693C47.5795 14.7693 50.7148 15.2811 53.6544 16.2288C53.4143 16.9811 52.6096 17.3917 51.8469 17.187C49.4482 16.5433 46.9265 16.2 44.3247 16.2C28.3373 16.2 15.377 29.1603 15.377 45.1477C15.377 61.1351 28.3373 74.0954 44.3247 74.0954C60.312 74.0954 73.2724 61.1351 73.2724 45.1477C73.2724 42.7559 72.9823 40.432 72.4354 38.209C72.2468 37.4422 72.6741 36.6463 73.4313 36.422C74.2586 39.1857 74.703 42.1148 74.703 45.1476Z" fill="#fff"/><path opacity=".9" d="M44.4895 28.5697C44.5962 28.3718 44.882 28.3774 44.9809 28.5794L45.1793 28.985C48.6533 36.0856 54.2634 41.9203 61.2222 45.6701L61.6198 45.8843C61.8177 45.991 61.8121 46.2768 61.6101 46.3756L61.2045 46.5741C54.1039 50.0481 48.2692 55.6581 44.5194 62.617L44.3052 63.0146C44.1986 63.2125 43.9127 63.2069 43.8139 63.0049L43.6154 62.5993C40.1415 55.4987 34.5314 49.664 27.5725 45.9142L27.175 45.7C26.977 45.5933 26.9826 45.3075 27.1846 45.2087L27.5902 45.0102C34.6908 41.5362 40.5255 35.9261 44.2753 28.9673L44.4895 28.5697Z" fill="#fff"/><g filter="url(#filter0_d)"><path d="M53.5249 36.3344C53.7303 36.2597 53.9294 36.4588 53.8548 36.6642L50.5679 45.7039C50.5472 45.7608 50.5472 45.823 50.5679 45.8798L53.8548 54.9196C53.9294 55.125 53.7303 55.3241 53.5249 55.2494L44.4852 51.9625C44.4283 51.9419 44.3661 51.9419 44.3093 51.9625L35.2695 55.2494C35.0641 55.3241 34.865 55.125 34.9397 54.9196L38.2266 45.8798C38.2472 45.823 38.2472 45.7608 38.2266 45.7039L34.9397 36.6642C34.865 36.4588 35.0641 36.2597 35.2695 36.3344L44.3093 39.6213C44.3661 39.6419 44.4284 39.6419 44.4852 39.6213L53.5249 36.3344Z" fill="#fff"/></g><rect x="57.912" y="17.086" width="14.769" height="14.769" rx="7.385" fill="#fff"/><path d="M66.3857 21.222H65.6383C64.3571 21.222 63.7166 21.8626 63.7166 22.8235C63.7166 23.8912 64.1436 24.425 65.1045 25.0656L65.8519 25.5994L63.7166 28.9092H62.0083L64.0368 25.9197C62.8624 25.0656 62.2218 24.3182 62.2218 22.9303C62.2218 21.222 63.3963 20.0476 65.6383 20.0476H67.8804V28.9092H66.3857V21.222Z" fill="#FC3F1D"/></g><defs><filter id="filter0_d" x="19.694" y="21.089" width="49.406" height="49.406" filterUnits="userSpaceOnUse" color-interpolation-filters="sRGB"><feFlood flood-opacity="0" result="BackgroundImageFix"/><feColorMatrix in="SourceAlpha" values="0 0 0 0 0 0 0 0 0 0 0 0 0 0 0 0 0 0 127 0"/><feOffset/><feGaussianBlur stdDeviation="2.954"/><feColorMatrix values="0 0 0 0 1 0 0 0 0 0 0 0 0 0 0 0 0 0 1 0"/><feBlend in2="BackgroundImageFix" result="effect1_dropShadow"/><feBlend in="SourceGraphic" in2="effect1_dropShadow" result="shape"/></filter><clipPath id="clip0"><path fill="#fff" d="M0 0H90V90H0z"/></clipPath></defs></svg>