<svg width="160" height="60" viewBox="0 0 160 60" fill="none" xmlns="http://www.w3.org/2000/svg">
<path fill-rule="evenodd" clip-rule="evenodd" d="M25.307 29.0726C25.1368 29.2429 25.0019 29.4454 24.9099 29.6685C24.818 29.8915 24.7708 30.1307 24.7713 30.3722V37.0765C24.7703 37.4768 24.6115 37.8604 24.3298 38.1431C24.0481 38.4257 23.6664 38.5845 23.2685 38.5845C22.8706 38.5845 22.4889 38.4257 22.2072 38.1431C21.9255 37.8604 21.7667 37.4768 21.7658 37.0765V18.6433C21.7663 18.4015 21.7192 18.1621 21.6274 17.9387C21.5355 17.7153 21.4006 17.5124 21.2305 17.3417L21.1735 17.2806C20.8244 16.9628 20.3674 16.792 19.8968 16.8034C19.4261 16.8147 18.9778 17.0075 18.6443 17.3417L18.5854 17.3972C18.2775 17.7381 18.1076 18.1826 18.1091 18.6433V42.3903C18.1087 42.6903 18.0197 42.9834 17.8533 43.2323C17.6869 43.4813 17.4507 43.6748 17.1746 43.7884C16.8986 43.9019 16.5952 43.9302 16.3031 43.8698C16.011 43.8094 15.7433 43.663 15.5342 43.4491L11.2367 39.126C11.0668 38.9551 10.8651 38.8195 10.6431 38.727C10.4212 38.6345 10.1832 38.5869 9.94294 38.5869C9.70266 38.5869 9.46473 38.6345 9.24274 38.727C9.02075 38.8195 8.81904 38.9551 8.64914 39.126C8.47923 39.2969 8.34446 39.4998 8.25251 39.7231C8.16055 39.9465 8.11323 40.1858 8.11323 40.4275C8.11323 40.6692 8.16055 40.9086 8.25251 41.1319C8.34446 41.3552 8.47923 41.5581 8.64914 41.7291L8.71887 41.803L18.1072 51.1232C18.3894 51.4036 18.5495 51.7851 18.5524 52.1841C18.5553 52.5831 18.4009 52.967 18.1229 53.2516C17.8449 53.5362 17.4661 53.6982 17.0695 53.7023C16.6729 53.7063 16.2909 53.552 16.0072 53.2731L6.61514 43.9473C6.58405 43.9212 6.55436 43.8937 6.52515 43.8657C5.61892 42.9538 5.10984 41.7171 5.10986 40.4276C5.10989 39.1381 5.61901 37.9014 6.52528 36.9895C7.43155 36.0775 8.66076 35.565 9.94259 35.5646C11.2244 35.5643 12.4539 36.076 13.3607 36.9874L15.1036 38.7426V18.6433C15.1027 17.3997 15.5778 16.2036 16.4303 15.3032C16.4586 15.2688 16.4888 15.236 16.5208 15.2051C17.4095 14.3097 18.6107 13.799 19.8683 13.7817C21.126 13.7644 22.3406 14.242 23.2532 15.1126C23.2892 15.1414 23.3235 15.1722 23.3559 15.2051C23.8053 15.6561 24.1617 16.1921 24.4046 16.7821C24.6475 17.3721 24.7721 18.0046 24.7713 18.6433V25.8713C25.6342 25.5167 26.5807 25.4206 27.4966 25.5947C28.4126 25.7688 29.2589 26.2056 29.9338 26.8525L29.947 26.8416C30.565 26.2532 31.3266 25.8395 32.1546 25.6424C32.9826 25.4453 33.8477 25.4717 34.6623 25.719C35.477 25.9663 36.2122 26.4257 36.7936 27.0507C37.3749 27.6758 37.7819 28.4442 37.9732 29.2783C38.6136 28.9943 39.3077 28.8536 40.0075 28.8658C40.7072 28.8781 41.396 29.0431 42.0262 29.3494C42.6564 29.6557 43.2129 30.096 43.6574 30.6399C44.1019 31.1837 44.4237 31.8182 44.6005 32.4994C44.6655 32.8321 44.703 33.1696 44.7126 33.5085C44.7442 34.1066 44.7607 34.7583 44.7607 34.9285C44.7607 35.3294 44.6024 35.7139 44.3206 35.9975C44.0387 36.281 43.6565 36.4402 43.2579 36.4402C42.8594 36.4402 42.4771 36.281 42.1953 35.9975C41.9135 35.7139 41.7552 35.3294 41.7552 34.9285C41.7552 34.7342 41.7443 34.1123 41.7203 33.6606C41.7076 33.4236 41.7038 33.2644 41.7019 33.2549C41.618 32.9425 41.4541 32.6576 41.2268 32.4287C40.9994 32.1997 40.7164 32.0347 40.4059 31.9499C40.0955 31.8651 39.7684 31.8635 39.4571 31.9454C39.1459 32.0272 38.8613 32.1896 38.6319 32.4164L38.63 32.4202L38.6319 32.4217C38.2893 32.7673 38.0968 33.2355 38.0966 33.7237V37.0765C38.0966 37.4772 37.9384 37.8615 37.6567 38.1448C37.3751 38.4282 36.9931 38.5873 36.5948 38.5873C36.1965 38.5873 35.8145 38.4282 35.5328 38.1448C35.2512 37.8615 35.093 37.4772 35.093 37.0765V30.3722C35.0922 30.0155 34.9887 29.6666 34.7949 29.3679C34.601 29.0692 34.3252 28.8334 34.0009 28.6892C33.6766 28.545 33.3176 28.4985 32.9675 28.5553C32.6175 28.6122 32.2913 28.77 32.0286 29.0095L31.9697 29.0707C31.7995 29.2414 31.6646 29.4443 31.5727 29.6676C31.4807 29.891 31.4336 30.1304 31.4339 30.3722V37.0765C31.4339 37.4772 31.2757 37.8615 30.9941 38.1448C30.7124 38.4282 30.3304 38.5873 29.9321 38.5873C29.5338 38.5873 29.1518 38.4282 28.8702 38.1448C28.5885 37.8615 28.4303 37.4772 28.4303 37.0765V30.3722C28.4303 30.0082 28.3229 29.6524 28.1219 29.3497C27.9208 29.0471 27.6351 28.8112 27.3008 28.6719C26.9665 28.5326 26.5987 28.4961 26.2438 28.5671C25.8889 28.6381 25.5629 28.8133 25.307 29.0707V29.0726Z" fill="white"/>
<path fill-rule="evenodd" clip-rule="evenodd" d="M34.9915 20.5391C34.9896 20.7181 34.9526 20.895 34.8827 21.0597C34.8128 21.2243 34.7113 21.3735 34.5841 21.4987C34.4568 21.6238 34.3063 21.7226 34.1411 21.7892C33.976 21.8558 33.7993 21.8891 33.6214 21.887C33.4434 21.885 33.2676 21.8477 33.104 21.7772C32.9404 21.7068 32.7921 21.6046 32.6678 21.4765C32.5434 21.3485 32.4454 21.197 32.3793 21.0308C32.3131 20.8645 32.2802 20.6868 32.2824 20.5078L32.2842 20.2727H32.2786C32.2781 18.3325 31.8178 16.4204 30.9359 14.695C30.0539 12.9696 28.7757 11.4805 27.2072 10.3514C25.6388 9.22233 23.8254 8.4857 21.9173 8.20263C20.0093 7.91957 18.0617 8.09823 16.236 8.72381C14.4103 9.34938 12.7593 10.4038 11.4197 11.7997C10.0802 13.1956 9.09078 14.8926 8.53359 16.7501C7.97641 18.6075 7.8675 20.5719 8.21591 22.4801C8.56431 24.3884 9.35998 26.1856 10.5369 27.7226C10.6458 27.8645 10.7259 28.0265 10.7725 28.1995C10.8192 28.3725 10.8315 28.553 10.8088 28.7308C10.7861 28.9085 10.7288 29.0801 10.6402 29.2356C10.5516 29.3911 10.4334 29.5275 10.2924 29.637C10.1514 29.7466 9.9903 29.8271 9.81835 29.874C9.6464 29.9209 9.46695 29.9333 9.29024 29.9105C9.11353 29.8877 8.94302 29.83 8.78845 29.7409C8.63388 29.6518 8.49827 29.5329 8.38938 29.391C6.94766 27.5098 5.97271 25.3098 5.54543 22.9736C5.11814 20.6374 5.25085 18.2324 5.93253 15.9582C6.61421 13.6839 7.82521 11.606 9.46503 9.89685C11.1049 8.18768 13.1262 6.89656 15.3614 6.13063C17.5966 5.36469 19.9811 5.14603 22.3171 5.49278C24.6531 5.83953 26.8732 6.74171 28.7932 8.12443C30.7132 9.50716 32.2777 11.3306 33.3569 13.4433C34.4361 15.5561 34.9989 17.8973 34.9986 20.2727H34.9934L34.9915 20.5391Z" fill="white"/>
<path fill-rule="evenodd" clip-rule="evenodd" d="M40.0269 23.5811C39.9988 23.7582 39.9361 23.9281 39.8426 24.0809C39.7491 24.2337 39.6265 24.3664 39.482 24.4715C39.3374 24.5766 39.1736 24.6519 39.0001 24.6933C38.8265 24.7346 38.6465 24.7411 38.4705 24.7123C38.2944 24.6836 38.1257 24.6202 37.974 24.5258C37.8223 24.4314 37.6907 24.3078 37.5865 24.1621C37.4824 24.0165 37.4078 23.8516 37.3671 23.6769C37.3264 23.5022 37.3204 23.3211 37.3493 23.1441C37.4247 22.6905 37.4817 22.2127 37.5241 21.7113C37.5628 21.2392 37.5812 20.7576 37.5812 20.2727C37.5812 17.4593 36.9084 14.6872 35.6197 12.1903C34.331 9.69342 32.4641 7.545 30.1766 5.92636C27.8892 4.30772 25.2482 3.26636 22.4766 2.89015C19.705 2.51394 16.8842 2.81393 14.252 3.7648C11.6199 4.71567 9.25379 6.28952 7.35332 8.35353C5.45285 10.4175 4.07381 12.9112 3.33256 15.6239C2.59132 18.3367 2.50964 21.1891 3.0944 23.9403C3.67916 26.6915 4.9132 29.2608 6.6924 31.4315C6.91965 31.7107 7.02751 32.0692 6.99232 32.4284C6.95712 32.7875 6.78175 33.1179 6.50467 33.3471C6.22759 33.5764 5.87143 33.6856 5.51435 33.651C5.15727 33.6164 4.82843 33.4407 4.59998 33.1624C2.54459 30.6534 1.11928 27.6838 0.444322 24.5043C-0.230635 21.3247 -0.135435 18.0285 0.721887 14.8937C1.57921 11.759 3.1735 8.87764 5.37023 6.49287C7.56697 4.10811 10.3017 2.28987 13.3436 1.19159C16.3856 0.0933155 19.6455 -0.252785 22.8484 0.182497C26.0512 0.617778 29.103 1.82167 31.7462 3.69259C34.3894 5.56351 36.5465 8.04656 38.0354 10.9322C39.5244 13.8179 40.3015 17.0215 40.3012 20.2727C40.3012 20.8207 40.279 21.3762 40.2333 21.935C40.189 22.4649 40.1207 23.0147 40.0269 23.5811Z" fill="white"/>
<path fill-rule="evenodd" clip-rule="evenodd" d="M22.6531 57.0885C22.5539 57.2591 22.4219 57.4082 22.265 57.5271C22.108 57.646 21.9291 57.7324 21.7387 57.7812C21.5483 57.8299 21.3501 57.8402 21.1557 57.8112C20.9613 57.7823 20.7746 57.7149 20.6064 57.6127C20.2655 57.4039 20.0202 57.0682 19.9238 56.6786C19.8274 56.2889 19.8876 55.8768 20.0914 55.5315L28.5925 41.1716C28.692 41.0013 28.8241 40.8526 28.9811 40.734C29.1382 40.6154 29.317 40.5294 29.5073 40.4808C29.6977 40.4323 29.8957 40.4222 30.0899 40.4512C30.2841 40.4802 30.4707 40.5477 30.6388 40.6497C30.8498 40.7767 31.0258 40.955 31.1504 41.1682L31.1542 41.1664L39.6794 55.5576C39.8844 55.9024 39.9461 56.3146 39.851 56.7048C39.756 57.095 39.5118 57.4318 39.1715 57.6421C39.0034 57.745 38.8166 57.8133 38.622 57.843C38.4275 57.8728 38.229 57.8634 38.0381 57.8153C37.8472 57.7673 37.6677 57.6817 37.5099 57.5633C37.3521 57.445 37.2193 57.2963 37.1191 57.126L29.8712 44.8951L22.6531 57.0885Z" fill="white"/>
<path fill-rule="evenodd" clip-rule="evenodd" d="M44.7605 56.4445C44.7605 56.8437 44.6028 57.2266 44.3222 57.5089C44.0416 57.7912 43.661 57.9498 43.2641 57.9498C42.8672 57.9498 42.4866 57.7912 42.206 57.5089C41.9253 57.2266 41.7677 56.8437 41.7677 56.4445L41.7587 44.7653L40.7613 45.5896C40.4546 45.8418 40.0609 45.9614 39.6667 45.922C39.2725 45.8827 38.9099 45.6877 38.6584 45.3797C38.4069 45.0718 38.2871 44.6761 38.3253 44.2794C38.3635 43.8827 38.5565 43.5175 38.862 43.2638L42.3015 40.4237C42.5207 40.2427 42.7865 40.128 43.0679 40.093C43.3493 40.0579 43.6349 40.104 43.8913 40.2257C44.1478 40.3475 44.3646 40.5401 44.5165 40.7809C44.6685 41.0218 44.7493 41.3011 44.7497 41.5864L44.7605 56.4445Z" fill="white"/>
<path fill-rule="evenodd" clip-rule="evenodd" d="M35.5913 50.8217C35.9884 50.8217 36.3692 50.9803 36.65 51.2628C36.9307 51.5452 37.0885 51.9283 37.0885 52.3277C37.0885 52.7271 36.9307 53.1102 36.65 53.3926C36.3692 53.6751 35.9884 53.8338 35.5913 53.8338L23.8566 53.8356C23.4602 53.8346 23.0804 53.6755 22.8004 53.3932C22.5205 53.1109 22.3633 52.7284 22.3633 52.3296C22.3633 51.9308 22.5205 51.5483 22.8004 51.266C23.0804 50.9837 23.4602 50.8246 23.8566 50.8236L35.5913 50.8217Z" fill="white"/>
<path fill-rule="evenodd" clip-rule="evenodd" d="M152.941 13.1664H149.964C149.785 13.1724 149.606 13.1416 149.439 13.0759C149.272 13.0101 149.12 12.9108 148.992 12.784C148.873 12.6712 148.778 12.5351 148.713 12.384C148.647 12.233 148.613 12.0701 148.612 11.9054C148.631 11.5806 148.771 11.2751 149.006 11.0512C149.125 10.9132 149.272 10.8029 149.437 10.728C149.603 10.653 149.782 10.6152 149.964 10.6172H158.622C158.972 10.6196 159.31 10.7517 159.569 10.9883C159.705 11.0984 159.815 11.2381 159.889 11.397C159.964 11.5559 160.002 11.7297 160 11.9054C159.998 12.0724 159.96 12.2371 159.89 12.3886C159.82 12.54 159.719 12.6748 159.594 12.784C159.333 13.0355 158.984 13.1729 158.622 13.1664H155.645V27.0318C155.643 27.1994 155.608 27.3647 155.54 27.5178C155.473 27.6709 155.375 27.8085 155.252 27.9221C154.997 28.1759 154.652 28.3181 154.293 28.3181C153.934 28.3181 153.589 28.1759 153.334 27.9221C153.212 27.8085 153.114 27.6709 153.046 27.5178C152.978 27.3647 152.943 27.1994 152.941 27.0318V13.1664ZM147.261 26.7601C147.266 26.9358 147.233 27.1104 147.165 27.2724C147.097 27.4344 146.996 27.58 146.868 27.6996C146.609 27.9458 146.264 28.0791 145.908 28.0707H139.389C138.924 28.0805 138.464 27.9746 138.049 27.7624C137.853 27.6471 137.694 27.4771 137.591 27.2729C137.488 27.0688 137.447 26.839 137.471 26.6115V12.0783C137.477 11.6998 137.632 11.3391 137.902 11.0755C138.042 10.9253 138.211 10.8068 138.4 10.7278C138.589 10.6487 138.792 10.6111 138.996 10.6172H145.662C145.84 10.6133 146.016 10.6453 146.18 10.7113C146.345 10.7774 146.495 10.876 146.62 11.0015C146.747 11.1198 146.848 11.2636 146.916 11.4235C146.984 11.5834 147.018 11.7559 147.015 11.9298C147.02 12.0984 146.987 12.266 146.918 12.4201C146.85 12.5741 146.748 12.7108 146.62 12.8201C146.356 13.0528 146.014 13.1764 145.662 13.1664H140.178V18.0445H145.196C145.532 18.048 145.856 18.1759 146.105 18.404C146.238 18.5126 146.345 18.6506 146.417 18.8072C146.49 18.9639 146.526 19.1352 146.522 19.3079C146.526 19.4786 146.494 19.6482 146.428 19.8058C146.363 19.9634 146.265 20.1055 146.142 20.2231C146.017 20.345 145.869 20.4406 145.706 20.5042C145.543 20.5678 145.37 20.5982 145.196 20.5937H140.178V25.5459H145.908C146.257 25.5413 146.595 25.6698 146.855 25.9058C146.981 26.0087 147.084 26.1388 147.154 26.2866C147.224 26.4344 147.261 26.5962 147.261 26.7601ZM133.931 27.007C133.931 27.1785 133.896 27.3482 133.829 27.5056C133.761 27.663 133.662 27.8047 133.538 27.9221C133.285 28.1757 132.942 28.3181 132.585 28.3181C132.228 28.3181 131.886 28.1757 131.633 27.9221C131.506 27.8065 131.404 27.6653 131.334 27.5078C131.264 27.3502 131.227 27.1796 131.226 27.007V20.6185H125.25V27.007C125.25 27.1784 125.215 27.3479 125.147 27.5053C125.079 27.6626 124.981 27.8044 124.857 27.9221C124.601 28.1759 124.257 28.3181 123.898 28.3181C123.539 28.3181 123.194 28.1759 122.939 27.9221C122.814 27.8048 122.715 27.6631 122.647 27.5057C122.579 27.3484 122.544 27.1786 122.543 27.007V11.6828C122.543 11.5125 122.578 11.3438 122.646 11.1878C122.714 11.0318 122.814 10.8919 122.939 10.777C123.198 10.5313 123.541 10.3946 123.898 10.3946C124.254 10.3946 124.597 10.5313 124.857 10.777C124.981 10.8923 125.08 11.0323 125.148 11.1883C125.216 11.3443 125.25 11.5127 125.25 11.6828V18.0694H131.226V11.6828C131.226 11.5114 131.262 11.342 131.333 11.1858C131.403 11.0296 131.505 10.8902 131.633 10.777C131.888 10.5316 132.227 10.3946 132.58 10.3946C132.932 10.3946 133.272 10.5316 133.527 10.777C133.654 10.8904 133.756 11.0298 133.826 11.186C133.896 11.3422 133.931 11.5116 133.931 11.6828V27.007ZM111.551 19.3571H114.012C116.142 19.3571 117.207 18.3254 117.208 16.262C117.208 15.8825 117.163 15.5043 117.074 15.1355C116.986 14.7716 116.818 14.4326 116.58 14.1443C116.316 13.8361 115.983 13.5944 115.609 13.4386C115.101 13.2394 114.557 13.1467 114.012 13.1664H111.551V19.3571ZM111.551 21.8819V26.9826C111.542 27.3381 111.396 27.6761 111.144 27.9252C110.892 28.1744 110.553 28.3152 110.2 28.3181C110.024 28.3193 109.849 28.2849 109.686 28.2169C109.524 28.1489 109.376 28.0486 109.253 27.9221C109.124 27.803 109.02 27.6578 108.95 27.4959C108.88 27.3341 108.845 27.1592 108.847 26.9826V12.1032C108.846 11.9073 108.886 11.7135 108.965 11.5342C109.043 11.3549 109.158 11.1942 109.302 11.0624C109.445 10.9181 109.616 10.8043 109.804 10.7278C109.992 10.6513 110.194 10.6137 110.396 10.6172H114.012C114.952 10.5917 115.887 10.7513 116.766 11.0872C117.464 11.3624 118.091 11.7945 118.599 12.3506C119.062 12.8713 119.406 13.4884 119.606 14.158C119.814 14.8481 119.918 15.5657 119.915 16.2868C119.928 17.1028 119.786 17.9138 119.496 18.6762C119.238 19.3466 118.829 19.948 118.302 20.4339C117.764 20.9175 117.132 21.284 116.446 21.5108C115.661 21.7682 114.838 21.8936 114.012 21.8819H111.551ZM106.314 26.7601C106.319 26.9358 106.286 27.1106 106.218 27.2727C106.151 27.4347 106.049 27.5803 105.921 27.6996C105.662 27.9454 105.318 28.0788 104.962 28.0707H98.4438C97.9787 28.0808 97.5182 27.9749 97.1036 27.7624C96.9072 27.6471 96.7482 27.4771 96.6456 27.2729C96.543 27.0688 96.5012 26.839 96.5254 26.6115V12.0783C96.5315 11.6998 96.6865 11.3391 96.9565 11.0755C97.0961 10.9253 97.2658 10.8068 97.4545 10.7278C97.6431 10.6487 97.8463 10.6111 98.0505 10.6172H104.717C104.894 10.6135 105.07 10.6456 105.235 10.7116C105.399 10.7776 105.549 10.8762 105.675 11.0015C105.801 11.1199 105.902 11.2637 105.97 11.4236C106.037 11.5835 106.071 11.756 106.068 11.9298C106.073 12.0983 106.04 12.2658 105.972 12.4199C105.904 12.574 105.802 12.7108 105.675 12.8201C105.41 13.0525 105.068 13.1761 104.717 13.1664H99.2301V18.0445H104.248C104.585 18.0479 104.909 18.1758 105.159 18.404C105.292 18.5129 105.399 18.6509 105.471 18.8075C105.544 18.9641 105.58 19.1352 105.577 19.3079C105.58 19.4788 105.548 19.6486 105.482 19.8062C105.417 19.9639 105.319 20.1059 105.195 20.2231C105.07 20.3453 104.921 20.441 104.759 20.5047C104.596 20.5683 104.423 20.5986 104.248 20.5937H99.2301V25.5459H104.962C105.312 25.542 105.65 25.6704 105.909 25.9058C106.036 26.0088 106.138 26.1389 106.208 26.2868C106.278 26.4346 106.314 26.5963 106.314 26.7601ZM87.132 13.1664H84.1554C83.9761 13.1725 83.7975 13.1417 83.6304 13.076C83.4634 13.0103 83.3114 12.9109 83.1838 12.784C83.0646 12.6712 82.9694 12.5351 82.9041 12.3841C82.8388 12.233 82.8047 12.0702 82.804 11.9054C82.822 11.5807 82.9626 11.2751 83.1969 11.0512C83.3158 10.9131 83.4631 10.8028 83.6286 10.7279C83.7941 10.653 83.9739 10.6152 84.1554 10.6172H92.8133C93.1635 10.6196 93.5006 10.7517 93.7602 10.9883C93.8964 11.0984 94.0059 11.2381 94.0806 11.3969C94.1553 11.5558 94.1931 11.7297 94.1913 11.9054C94.1891 12.0725 94.1518 12.2372 94.0817 12.3886C94.0117 12.5401 93.9105 12.6748 93.7849 12.784C93.5236 13.0352 93.1745 13.1726 92.8133 13.1664H89.8367V27.0318C89.8348 27.1994 89.799 27.3648 89.7314 27.5179C89.6637 27.671 89.5657 27.8085 89.4433 27.9221C89.1877 28.1759 88.8431 28.3181 88.4841 28.3181C88.1251 28.3181 87.7805 28.1759 87.5249 27.9221C87.4026 27.8085 87.3046 27.6709 87.2371 27.5178C87.1695 27.3647 87.1338 27.1994 87.132 27.0318V13.1664ZM80.4433 27.007C80.4433 27.1785 80.4084 27.3482 80.3407 27.5056C80.2731 27.663 80.1741 27.8047 80.0499 27.9221C79.9253 28.0507 79.7758 28.1522 79.6107 28.2203C79.4456 28.2884 79.2684 28.3217 79.09 28.3181C78.9139 28.319 78.7394 28.2844 78.5768 28.2164C78.4142 28.1484 78.2667 28.0483 78.1431 27.9221C78.0161 27.8064 77.9145 27.6652 77.8448 27.5076C77.7751 27.35 77.739 27.1795 77.7386 27.007V20.6185H71.7602V27.007C71.7603 27.1785 71.7255 27.3481 71.6579 27.5055C71.5903 27.6629 71.4914 27.8047 71.3673 27.9221C71.1117 28.1759 70.7671 28.3181 70.4081 28.3181C70.0491 28.3181 69.7045 28.1759 69.4489 27.9221C69.3247 27.8047 69.2257 27.663 69.158 27.5056C69.0904 27.3482 69.0555 27.1785 69.0555 27.007V11.6828C69.0546 11.5126 69.0892 11.344 69.1569 11.188C69.2247 11.032 69.3241 10.892 69.4489 10.777C69.7087 10.5314 70.0517 10.3946 70.4081 10.3946C70.7645 10.3946 71.1075 10.5314 71.3673 10.777C71.492 10.892 71.5914 11.032 71.659 11.188C71.7267 11.3441 71.7612 11.5126 71.7602 11.6828V18.0694H77.7386V11.6828C77.7381 11.5116 77.7739 11.3422 77.8437 11.1859C77.9134 11.0297 78.0155 10.8903 78.1431 10.777C78.3981 10.5316 78.7372 10.3946 79.09 10.3946C79.4427 10.3946 79.7819 10.5316 80.0369 10.777C80.165 10.89 80.2675 11.0293 80.3376 11.1856C80.4077 11.3418 80.4438 11.5114 80.4433 11.6828V27.007ZM55.2339 28.3181C55.0414 28.3252 54.8494 28.2927 54.6698 28.2227C54.4901 28.1527 54.3264 28.0467 54.1888 27.9109C54.0587 27.7843 53.9557 27.6323 53.8861 27.4641C53.8165 27.2959 53.7819 27.1151 53.7843 26.933V11.7053C53.7817 11.5327 53.8141 11.3614 53.8794 11.2018C53.9447 11.0422 54.0416 10.8976 54.1641 10.777C54.2879 10.6519 54.4357 10.5535 54.5985 10.4877C54.7613 10.422 54.9357 10.3903 55.111 10.3946C55.4723 10.3883 55.8214 10.5257 56.0826 10.777C56.2122 10.8936 56.3155 11.0367 56.3856 11.1968C56.4557 11.3569 56.491 11.5303 56.489 11.7053V22.6982C56.6705 22.3689 56.9274 21.8989 57.2637 21.2882C57.6004 20.6775 57.9696 19.9964 58.3712 19.2451C58.7723 18.4936 59.1945 17.7052 59.6379 16.88C60.0801 16.0545 60.5022 15.2707 60.9041 14.5286C61.3067 13.7869 61.6715 13.1141 61.9986 12.5103C62.3271 11.9088 62.581 11.4508 62.7602 11.1364C62.8938 10.9044 63.0906 10.7156 63.3272 10.5924C63.569 10.4619 63.8392 10.394 64.1135 10.3946C64.3012 10.3886 64.4882 10.4205 64.6634 10.4885C64.8387 10.5564 64.9987 10.659 65.1339 10.7901C65.2666 10.9177 65.3714 11.0719 65.4413 11.2426C65.5113 11.4134 65.5451 11.597 65.5403 11.7817V27.007C65.5348 27.3576 65.3923 27.6918 65.1436 27.9372C64.8948 28.1827 64.56 28.3195 64.2117 28.3181C64.0317 28.3209 63.8529 28.2873 63.686 28.2192C63.5192 28.1512 63.3675 28.0502 63.2401 27.9221C63.1131 27.8064 63.0115 27.6652 62.9418 27.5076C62.8722 27.35 62.836 27.1795 62.8356 27.007V16.0642L56.5626 27.6007C56.4248 27.8225 56.2294 28.0022 55.9974 28.1204C55.7634 28.2497 55.5009 28.3177 55.2339 28.3181Z" fill="white"/>
<path d="M64.0426 47.1607C64.0426 48.1294 63.9195 49.0078 63.6732 49.7959C63.4433 50.5675 63.0821 51.2325 62.5896 51.7907C62.1134 52.3325 61.506 52.7594 60.7671 53.0714C60.0283 53.3669 59.1499 53.5146 58.132 53.5146C57.5245 53.5146 56.9334 53.449 56.3588 53.3176C55.8006 53.2027 55.2998 53.0385 54.8565 52.8251C54.4132 52.6116 54.0602 52.3654 53.7975 52.0862C53.5348 51.7907 53.4035 51.4788 53.4035 51.1504C53.4035 50.8385 53.5184 50.5675 53.7483 50.3377C53.9946 50.1078 54.2983 49.9929 54.6595 49.9929C54.8894 49.9929 55.0618 50.034 55.1767 50.116C55.308 50.1817 55.464 50.272 55.6446 50.3869C56.0222 50.6168 56.3916 50.7974 56.7528 50.9288C57.1305 51.0601 57.5491 51.1258 58.0089 51.1258C58.6328 51.1258 59.1581 51.0355 59.585 50.8549C60.0119 50.6743 60.3485 50.4116 60.5947 50.0668C60.8574 49.722 61.0463 49.3033 61.1612 48.8108C61.2761 48.3182 61.3336 47.7682 61.3336 47.1607V45.9047H57.1223C56.7446 45.9047 56.4327 45.7816 56.1864 45.5353C55.9401 45.2726 55.817 44.9607 55.817 44.5995C55.817 44.2383 55.9483 43.9427 56.211 43.7129C56.4737 43.4666 56.7775 43.3435 57.1223 43.3435H61.3336V42.0875C61.3336 41.48 61.2761 40.93 61.1612 40.4374C61.0463 39.9449 60.8574 39.5262 60.5947 39.1814C60.3485 38.8366 60.0119 38.5739 59.585 38.3933C59.1581 38.2127 58.6328 38.1224 58.0089 38.1224C57.2864 38.1224 56.6625 38.2784 56.1372 38.5903C55.9073 38.7217 55.6692 38.8695 55.423 39.0336C55.1931 39.1978 54.9386 39.2799 54.6595 39.2799C54.2983 39.2799 53.9946 39.165 53.7483 38.9351C53.5184 38.7053 53.4035 38.4262 53.4035 38.0978C53.4035 37.7858 53.5348 37.4903 53.7975 37.2112C54.0602 36.9157 54.4132 36.6612 54.8565 36.4477C55.2998 36.2179 55.8006 36.0455 56.3588 35.9306C56.9334 35.7992 57.5245 35.7335 58.132 35.7335C59.1499 35.7335 60.0283 35.8895 60.7671 36.2015C61.506 36.497 62.1134 36.9239 62.5896 37.4821C63.0821 38.0239 63.4433 38.6889 63.6732 39.4769C63.9195 40.265 64.0426 41.1352 64.0426 42.0875V47.1607ZM69.4995 43.3681H70.3615L75.3855 36.3246C75.6646 35.9306 76.0423 35.7335 76.5184 35.7335C76.9288 35.7335 77.249 35.8895 77.4789 36.2015C77.7087 36.497 77.8236 36.7925 77.8236 37.0881C77.8236 37.3015 77.758 37.5149 77.6266 37.7284L72.6026 44.6487L77.6266 51.5444C77.758 51.7907 77.8236 52.0124 77.8236 52.2094C77.8236 52.3572 77.7908 52.5131 77.7251 52.6773C77.6759 52.8251 77.5938 52.9646 77.4789 53.096C77.3639 53.2273 77.2244 53.334 77.0602 53.4161C76.896 53.5146 76.7154 53.5639 76.5184 53.5639C76.0587 53.5639 75.6811 53.3669 75.3855 52.9728L70.3369 45.9047H69.4995V52.2586C69.4995 52.6034 69.3682 52.9072 69.1055 53.1699C68.8428 53.4326 68.5226 53.5639 68.145 53.5639C67.7674 53.5639 67.4472 53.4326 67.1845 53.1699C66.9218 52.9072 66.7905 52.6034 66.7905 52.2586V37.0142C66.7905 36.6694 66.9218 36.3739 67.1845 36.1276C67.4472 35.8649 67.7674 35.7335 68.145 35.7335C68.5226 35.7335 68.8428 35.8649 69.1055 36.1276C69.3682 36.3739 69.4995 36.6694 69.4995 37.0142V43.3681ZM79.3046 42.0875C79.3046 41.1352 79.4195 40.265 79.6494 39.4769C79.8956 38.6889 80.2568 38.0239 80.733 37.4821C81.2255 36.9239 81.8412 36.497 82.58 36.2015C83.3189 35.8895 84.1972 35.7335 85.2152 35.7335C85.8227 35.7335 86.4055 35.7992 86.9637 35.9306C87.5384 36.0455 88.0474 36.2179 88.4907 36.4477C88.9339 36.6612 89.2869 36.9157 89.5496 37.2112C89.8123 37.4903 89.9437 37.7858 89.9437 38.0978C89.9437 38.4262 89.8205 38.7053 89.5743 38.9351C89.3444 39.165 89.0489 39.2799 88.6877 39.2799C88.4578 39.2799 88.2772 39.2471 88.1459 39.1814C88.0309 39.0993 87.8832 39.0008 87.7026 38.8859L87.5794 38.812C86.9227 38.3523 86.1757 38.1224 85.3383 38.1224C84.7144 38.1224 84.189 38.2127 83.7622 38.3933C83.3353 38.5739 82.9905 38.8366 82.7278 39.1814C82.4651 39.5262 82.2763 39.9449 82.1614 40.4374C82.0629 40.93 82.0136 41.48 82.0136 42.0875V47.1607C82.0136 47.7682 82.0629 48.3182 82.1614 48.8108C82.2763 49.3033 82.4651 49.722 82.7278 50.0668C82.9905 50.4116 83.3353 50.6743 83.7622 50.8549C84.189 51.0355 84.7144 51.1258 85.3383 51.1258C86.1592 51.1258 86.9063 50.9041 87.5794 50.4608L87.7026 50.3869C87.8832 50.272 88.0309 50.1817 88.1459 50.116C88.2772 50.034 88.4578 49.9929 88.6877 49.9929C89.0489 49.9929 89.3444 50.1078 89.5743 50.3377C89.8205 50.5675 89.9437 50.8385 89.9437 51.1504C89.9437 51.4788 89.8123 51.7907 89.5496 52.0862C89.2869 52.3654 88.9339 52.6116 88.4907 52.8251C88.0474 53.0385 87.5384 53.2027 86.9637 53.3176C86.4055 53.449 85.8227 53.5146 85.2152 53.5146C84.1972 53.5146 83.3189 53.3669 82.58 53.0714C81.8412 52.7594 81.2255 52.3325 80.733 51.7907C80.2568 51.2325 79.8956 50.5675 79.6494 49.7959C79.4195 49.0078 79.3046 48.1294 79.3046 47.1607V42.0875ZM103.735 52.2586C103.735 52.6034 103.603 52.9072 103.34 53.1699C103.078 53.4326 102.758 53.5639 102.38 53.5639C102.019 53.5639 101.699 53.4326 101.42 53.1699C101.157 52.9072 101.026 52.6034 101.026 52.2586V38.4672H95.041V52.2586C95.041 52.6034 94.9097 52.9072 94.647 53.1699C94.3843 53.4326 94.0641 53.5639 93.6865 53.5639C93.3089 53.5639 92.9887 53.4326 92.726 53.1699C92.4633 52.9072 92.332 52.6034 92.332 52.2586V37.2358C92.332 36.891 92.4633 36.5873 92.726 36.3246C92.9887 36.0619 93.3089 35.9306 93.6865 35.9306H102.38C102.741 35.9306 103.053 36.0619 103.316 36.3246C103.595 36.5873 103.735 36.891 103.735 37.2358V52.2586ZM116.877 52.0124C116.877 52.39 116.745 52.7019 116.483 52.9482C116.22 53.1945 115.9 53.3176 115.522 53.3176H108.996C108.487 53.3176 108.035 53.2191 107.641 53.0221C107.264 52.8087 107.075 52.4228 107.075 51.8646V37.4082C107.075 37.047 107.214 36.7187 107.494 36.4231C107.789 36.1112 108.158 35.9552 108.602 35.9552H115.276C115.653 35.9552 115.974 36.0865 116.236 36.3492C116.499 36.5955 116.63 36.8993 116.63 37.2605C116.63 37.6217 116.499 37.9172 116.236 38.147C115.974 38.3769 115.653 38.4918 115.276 38.4918H109.784V43.3435H114.808C115.136 43.3435 115.44 43.4666 115.719 43.7129C115.998 43.9427 116.138 44.2383 116.138 44.5995C116.138 44.9607 116.006 45.2644 115.744 45.5107C115.497 45.757 115.186 45.8801 114.808 45.8801H109.784V50.8056H115.522C115.883 50.8056 116.195 50.9288 116.458 51.175C116.737 51.4049 116.877 51.684 116.877 52.0124ZM121.953 47.1607V52.234C121.953 52.5788 121.822 52.8907 121.559 53.1699C121.297 53.4326 120.976 53.5639 120.599 53.5639C120.238 53.5639 119.917 53.4326 119.638 53.1699C119.376 52.9072 119.244 52.5952 119.244 52.234V37.4328C119.244 37.0388 119.392 36.694 119.688 36.3985C120 36.103 120.369 35.9552 120.796 35.9552H124.416C125.5 35.9552 126.419 36.1112 127.174 36.4231C127.93 36.7351 128.537 37.1537 128.997 37.6791C129.473 38.2045 129.81 38.8038 130.007 39.4769C130.22 40.1501 130.327 40.8561 130.327 41.5949C130.327 42.4815 130.187 43.2778 129.908 43.9838C129.629 44.6734 129.227 45.2562 128.701 45.7323C128.192 46.1921 127.577 46.545 126.854 46.7913C126.132 47.0376 125.319 47.1607 124.416 47.1607H121.953ZM121.953 44.6487H124.416C126.55 44.6487 127.618 43.6226 127.618 41.5703C127.618 41.1927 127.568 40.8232 127.47 40.462C127.388 40.0844 127.224 39.7561 126.977 39.4769C126.748 39.1814 126.427 38.9433 126.017 38.7627C125.606 38.5821 125.073 38.4918 124.416 38.4918H121.953V44.6487ZM135.937 38.4918H132.957C132.563 38.4918 132.235 38.3687 131.972 38.1224C131.726 37.8597 131.603 37.5642 131.603 37.2358C131.603 36.9567 131.734 36.6776 131.997 36.3985C132.259 36.103 132.579 35.9552 132.957 35.9552H141.626C141.971 35.9552 142.283 36.0783 142.562 36.3246C142.857 36.5709 143.005 36.8746 143.005 37.2358C143.005 37.5642 142.866 37.8597 142.586 38.1224C142.324 38.3687 142.004 38.4918 141.626 38.4918H138.646V52.2833C138.646 52.6116 138.515 52.9072 138.252 53.1699C137.989 53.4326 137.669 53.5639 137.292 53.5639C136.914 53.5639 136.594 53.4326 136.331 53.1699C136.068 52.9072 135.937 52.6116 135.937 52.2833V38.4918Z" fill="white"/>
</svg>
